<svg width="553" height="361" viewBox="0 0 553 361" fill="none" xmlns="http://www.w3.org/2000/svg">
<path d="M286.001 65.0148C251.075 70.9201 216.199 68.3886 182.649 64.7063C149.098 61.024 115.631 56.2155 80.6912 57.6649C58.215 58.5953 33.1844 63.0512 17.4907 76.0028C2.38425 88.4599 0.0304412 105.27 0.00107978 120.445C-0.0380688 131.859 0.950432 143.67 9.03461 152.763C14.6524 159.069 23.2994 163.589 29.8127 169.411C52.4748 189.634 45.5847 221.477 30.7131 248.551C23.7349 261.253 15.2005 273.744 10.4489 286.745C5.69719 299.745 5.06593 313.676 13.5709 324.277C21.9977 334.79 38.2982 340.715 55.2935 343.786C89.8128 350.024 128.271 346.151 165.482 340.901C247.836 329.243 329.338 311.066 410.665 292.934C440.755 286.221 470.978 279.478 499.967 269.802C516.067 264.416 532.461 257.712 542.859 247.278C556.072 234.057 556.405 215.973 543.672 205.166C522.306 187.049 473.948 191.069 457.423 170.356C448.33 158.952 452.289 143.464 459.527 129.783C475.044 100.442 505.037 71.4539 501.152 42.2013C498.47 22.1251 478.01 5.51076 450.586 1.18213C421.841 -3.35216 384.924 5.24635 368.374 25.4499C351.359 46.2655 316.84 59.7852 286.001 65.0148Z" fill="white"/>
<path d="M314.86 175.692H176.165V207.79H314.86V175.692Z" fill="#565661"/>
<path opacity="0.1" d="M314.86 175.692H176.165V207.79H314.86V175.692Z" fill="black"/>
<path d="M192.758 208.846L193.732 294.536L180.393 328.193L179.36 208.846H192.758Z" fill="#BCBEC9"/>
<path d="M177.628 181.855L312.663 182.667V206.572H177.628V181.855Z" fill="#565661"/>
<path d="M301.109 208.846L312.663 210.475V326.892L301.109 291.283V208.846Z" fill="#373434"/>
<path d="M382.13 176.979H317.052V315.189H382.13V176.979Z" fill="#322C3A"/>
<path d="M376.924 180.818H322.259V287.058H376.924V180.818Z" fill="#565661"/>
<path opacity="0.1" d="M376.924 180.818H322.259V287.058H376.924V180.818Z" fill="black"/>
<path d="M376.924 182.994H322.259V206.572H376.924V182.994Z" fill="#565661"/>
<path d="M376.924 208.846H322.259V258.927H376.924V208.846Z" fill="#565661"/>
<path d="M376.924 262.018H322.259V312.098H376.924V262.018Z" fill="#565661"/>
<path opacity="0.1" d="M376.924 262.018H322.259V312.098H376.924V262.018Z" fill="black"/>
<path d="M324.539 324.188C326.485 324.188 328.062 322.173 328.062 319.688C328.062 317.204 326.485 315.189 324.539 315.189C322.593 315.189 321.016 317.204 321.016 319.688C321.016 322.173 322.593 324.188 324.539 324.188Z" fill="#565661"/>
<path d="M373.4 324.403C375.346 324.403 376.924 322.389 376.924 319.904C376.924 317.419 375.346 315.404 373.4 315.404C371.454 315.404 369.877 317.419 369.877 319.904C369.877 322.389 371.454 324.403 373.4 324.403Z" fill="#565661"/>
<path d="M175.675 328.193H180.392L179.096 178.177H171.932L175.675 328.193Z" fill="#EFEFF0"/>
<path d="M312.663 176.979V326.893H317.052V178.177L312.663 176.979Z" fill="#9D9CB5"/>
<path d="M179.326 205.105V210.475H312.663V206.572L179.326 205.105Z" fill="#322C3A"/>
<path d="M188.364 166.899H357.404L381.969 175.027V179.742L171.119 178.118V173.32L188.364 166.899Z" fill="#322C3A"/>
<path d="M171.119 173.321L381.969 175.027V179.742L171.119 178.118V173.321Z" fill="#322C3A"/>
<path d="M190.219 229.231L189.24 229.084C189.24 229.04 189.24 229.001 189.24 228.962C189.21 228.732 189.176 228.507 189.142 228.277C189.543 228.595 189.925 228.913 190.277 229.231H190.219Z" fill="url(#paint0_linear)"/>
<path d="M168.952 304.748C169.588 304.601 170.234 304.479 170.88 304.391C175.316 303.759 179.84 304.425 183.906 306.308C183.495 309.33 183.089 312.455 183.96 315.375C184.567 317.429 185.785 319.288 186.044 321.43C186.698 321.542 187.307 321.834 187.804 322.273C188.301 322.711 188.666 323.28 188.858 323.914C189.046 324.475 189.14 325.063 189.137 325.655C189.132 326.387 189.04 327.116 188.863 327.827C188.804 328.394 188.525 328.916 188.086 329.282C187.648 329.647 187.084 329.827 186.514 329.783C182.727 330.213 179.013 328.722 175.489 327.259L168.638 324.413C167.836 324.08 167.028 323.743 166.26 323.332C164.803 322.545 163.509 321.488 162.448 320.217C162.224 319.99 162.066 319.706 161.993 319.395C161.866 318.534 162.874 318.021 163.515 317.439C163.703 317.261 163.867 317.061 164.004 316.842C164.763 315.698 164.836 314.118 165.291 312.768C166.368 309.565 169.695 307.501 170.87 304.376C170.933 304.205 170.992 304.033 171.041 303.857" fill="#A26565"/>
<path opacity="0.1" d="M189.137 325.655C189.132 326.387 189.04 327.116 188.863 327.827C188.804 328.394 188.525 328.916 188.086 329.282C187.648 329.647 187.084 329.827 186.514 329.783C182.727 330.213 179.013 328.722 175.489 327.259L168.638 324.413C167.836 324.08 167.028 323.743 166.26 323.332C164.803 322.545 163.509 321.488 162.448 320.217C162.224 319.99 162.066 319.706 161.993 319.395C161.866 318.534 162.874 318.021 163.515 317.439C163.703 317.261 163.867 317.061 164.004 316.842C165.893 317.248 168.237 318.436 169.681 318.896C171.127 319.29 172.515 319.87 173.811 320.623C175.612 321.777 176.908 323.557 178.435 325.024C179.962 326.491 181.934 327.827 184.063 327.646C185.188 327.476 186.273 327.101 187.263 326.54L189.137 325.655Z" fill="black"/>
<path d="M181.117 256.154C181.244 256.598 181.232 257.07 181.084 257.507C180.935 257.944 180.656 258.325 180.285 258.599C179.644 258.995 178.817 258.941 178.181 259.372C177.393 259.924 177.28 261.02 177.143 261.969C176.654 265.231 175.034 268.19 173.649 271.188C172.264 274.186 171.095 277.457 171.604 280.715C171.951 282.925 173.038 285.283 172.02 287.273C171.77 287.762 171.398 288.197 171.114 288.672C169.72 291 170.513 293.949 170.459 296.658C170.479 296.959 170.413 297.26 170.268 297.524C170.054 297.774 169.791 297.977 169.495 298.121C168.998 298.486 168.59 298.958 168.301 299.502C168.012 300.047 167.85 300.649 167.826 301.265C167.785 302.497 167.933 303.727 168.266 304.914C168.32 305.393 168.532 305.84 168.868 306.185C169.258 306.443 169.718 306.573 170.185 306.557C173.259 306.806 176.275 307.539 179.12 308.728C180.975 309.501 182.776 310.47 184.748 310.841C184.938 310.9 185.139 310.92 185.338 310.899C185.536 310.878 185.728 310.817 185.902 310.719C186.15 310.495 186.322 310.199 186.392 309.873C187.15 307.379 187.919 304.806 187.659 302.214C187.547 301.099 187.248 300.008 187.17 298.893C186.827 294.492 189.807 290.52 190.752 286.178C191.178 284.221 191.178 282.197 191.481 280.221C192.303 274.807 195.288 269.95 196.438 264.595C196.598 263.597 196.847 262.615 197.182 261.661C198.038 259.587 200.02 257.905 200.064 255.66C200.091 255.166 199.961 254.676 199.692 254.261C199.231 253.755 198.618 253.412 197.945 253.283C195.287 252.552 192.581 252.006 189.847 251.649C188.594 251.403 187.315 251.315 186.04 251.385C184.384 251.58 182.792 252.141 181.381 253.029C179.492 254.193 180.706 254.471 181.117 256.154Z" fill="#454B69"/>
<path opacity="0.05" d="M181.117 256.154C181.244 256.598 181.232 257.07 181.084 257.507C180.935 257.944 180.656 258.325 180.285 258.599C179.644 258.995 178.817 258.941 178.181 259.372C177.393 259.924 177.28 261.02 177.143 261.969C176.654 265.231 175.034 268.19 173.649 271.188C172.264 274.186 171.095 277.457 171.604 280.715C171.951 282.925 173.038 285.283 172.02 287.273C171.77 287.762 171.398 288.197 171.114 288.672C169.72 291 170.513 293.949 170.459 296.658C170.479 296.959 170.413 297.26 170.268 297.524C170.054 297.774 169.791 297.977 169.495 298.121C168.998 298.486 168.59 298.958 168.301 299.502C168.012 300.047 167.85 300.649 167.826 301.265C167.785 302.497 167.933 303.727 168.266 304.914C168.32 305.393 168.532 305.84 168.868 306.185C169.258 306.443 169.718 306.573 170.185 306.557C173.259 306.806 176.275 307.539 179.12 308.728C180.975 309.501 182.776 310.47 184.748 310.841C184.938 310.9 185.139 310.92 185.338 310.899C185.536 310.878 185.728 310.817 185.902 310.719C186.15 310.495 186.322 310.199 186.392 309.873C187.15 307.379 187.919 304.806 187.659 302.214C187.547 301.099 187.248 300.008 187.17 298.893C186.827 294.492 189.807 290.52 190.752 286.178C191.178 284.221 191.178 282.197 191.481 280.221C192.303 274.807 195.288 269.95 196.438 264.595C196.598 263.597 196.847 262.615 197.182 261.661C198.038 259.587 200.02 257.905 200.064 255.66C200.091 255.166 199.961 254.676 199.692 254.261C199.231 253.755 198.618 253.412 197.945 253.283C195.287 252.552 192.581 252.006 189.847 251.649C188.594 251.403 187.315 251.315 186.04 251.385C184.384 251.58 182.792 252.141 181.381 253.029C179.492 254.193 180.706 254.471 181.117 256.154Z" fill="black"/>
<path d="M171.54 329.861H167.366L164.636 273.794L164.445 270.606L167.992 269.359L168.232 272.748L171.54 329.861Z" fill="#565661"/>
<path opacity="0.1" d="M168.232 272.748L164.636 273.794L164.445 270.606L167.992 269.359L168.232 272.748Z" fill="black"/>
<path d="M223.915 341.721L217.03 342.552L185.31 270.606L176.757 269.98L161.734 274.362L158.812 360.022H151.927L154.638 271.232L138.152 271.652L108.733 344.846H102.474L133.415 259.303L134.609 256.007L180.72 254.427L192.215 260.868L192.362 261.24L223.915 341.721Z" fill="#565661"/>
<path opacity="0.1" d="M192.362 261.24C182.453 264.223 172.167 267.481 172.167 267.481C172.167 267.481 162.786 270.752 158.812 267.481C158.311 267.09 157.751 266.781 157.153 266.566C157.669 266.934 158.226 267.241 158.812 267.481L133.415 259.298L134.604 256.007L180.72 254.427L192.215 260.868L192.362 261.24Z" fill="black"/>
<path d="M145.458 247.042L164.234 242.871C164.234 242.871 209.098 251.214 212.435 254.55C212.435 254.55 176.546 261.847 172.583 264.331C168.619 266.815 145.037 269.564 145.458 247.042Z" fill="#322C3A"/>
<path d="M137.384 200.146C135.916 204.797 131.908 208.988 127.029 209.189C126.674 209.23 126.315 209.166 125.997 209.003C125.385 208.621 125.37 207.726 125.62 207.047C125.87 206.367 126.305 205.755 126.374 205.041C126.388 204.896 126.378 204.749 126.344 204.606C126.217 204.024 125.742 203.506 125.184 203.628C125.564 203.324 125.817 202.89 125.894 202.41C125.971 201.93 125.866 201.438 125.6 201.031C125.379 200.781 125.179 200.513 125.003 200.229C124.597 199.398 125.229 198.463 125.493 197.573C126.036 195.617 124.656 193.661 124.543 191.621C124.446 189.797 125.37 188.081 125.6 186.271C125.967 183.337 124.509 180.525 124.338 177.595C124.22 175.551 124.724 173.526 125.287 171.555C125.777 169.794 126.33 168.014 126.364 166.175C126.364 164.84 126.134 163.52 126.07 162.189C125.969 160.973 126.19 159.752 126.711 158.649C127.05 158 127.627 157.507 128.321 157.274C129.926 156.736 130.978 157.573 131.213 159.094C131.605 161.681 131.38 164.322 131.893 166.919C132.368 169.347 133.088 171.722 134.042 174.005C134.908 176.069 135.96 178.065 136.625 180.202C137.126 181.963 137.485 183.762 137.697 185.581C138.353 190.467 138.867 195.495 137.384 200.146Z" fill="#C594FE"/>
<path d="M248.837 318.52C248.218 319.392 247.422 320.123 246.5 320.666C245.578 321.209 244.552 321.551 243.489 321.669C241.365 321.933 239.158 321.4 237.098 321.982C236.779 322.035 236.478 322.165 236.222 322.362C235.965 322.56 235.762 322.817 235.63 323.112C235.579 323.51 235.548 323.909 235.537 324.31C235.297 325.616 233.579 325.909 232.244 325.9L226.734 325.865C225.588 325.865 224.321 325.802 223.499 325.009C223.108 324.577 222.888 324.017 222.879 323.434C222.87 322.851 223.073 322.285 223.45 321.84C223.621 321.638 223.831 321.472 224.067 321.351C223.723 321.237 223.417 321.03 223.184 320.753C222.95 320.476 222.799 320.14 222.745 319.781C222.645 319.062 222.68 318.331 222.848 317.625C222.848 315.58 223.337 312.157 224.776 310.558C226.543 308.567 229.606 305.995 232.273 305.461C233.173 305.289 234.102 305.329 234.984 305.58C235.866 305.831 236.677 306.284 237.352 306.904C238.615 308.078 239.535 309.917 241.267 310.122C242.212 310.24 243.122 309.795 244.056 309.633C245.119 309.497 246.197 309.692 247.144 310.191C248.091 310.691 248.86 311.472 249.346 312.426C249.583 312.909 249.748 313.425 249.836 313.957C250.094 315.549 249.737 317.18 248.837 318.52Z" fill="#A26565"/>
<path opacity="0.1" d="M248.837 318.52C248.218 319.392 247.422 320.123 246.5 320.666C245.578 321.209 244.552 321.551 243.489 321.669C241.365 321.933 239.158 321.4 237.098 321.982C236.779 322.035 236.478 322.165 236.222 322.363C235.965 322.56 235.762 322.817 235.63 323.112C235.579 323.51 235.548 323.909 235.537 324.31C235.297 325.616 233.579 325.909 232.244 325.9L226.734 325.865C225.588 325.865 224.321 325.802 223.499 325.01C223.108 324.577 222.888 324.017 222.879 323.434C222.87 322.851 223.073 322.285 223.45 321.84C226.631 321.708 229.758 321.84 232.929 321.185C234.216 320.926 235.483 320.584 236.785 320.403C239.603 320.002 242.603 320.344 245.192 319.151C247.35 318.172 248.896 316.182 249.811 313.962C250.076 315.549 249.727 317.178 248.837 318.52Z" fill="black"/>
<path d="M234.299 310.787C232.341 312.304 230.046 313.487 227.58 313.614C225.114 313.741 222.496 312.636 221.287 310.494C219.521 307.349 221.086 302.977 218.924 300.092C218.248 299.187 217.274 298.546 216.56 297.671C215.846 296.795 215.435 295.48 216.071 294.55C215.302 294.844 214.49 294.1 214.265 293.308C214.04 292.516 214.182 291.665 214.045 290.863C213.688 288.735 211.598 287.371 210.595 285.483C209.592 283.595 209.729 281.145 209.616 278.91C209.366 273.465 207.338 268.251 203.842 264.067C203.176 263.275 202.325 262.468 201.288 262.507C201.469 260.717 200.275 259.005 198.728 258.105C197.182 257.205 195.342 256.902 193.551 256.726C175.479 254.946 156.649 261.661 139.395 256.012C134.595 254.442 129.965 251.816 127.029 247.698C125.886 246.131 125.067 244.35 124.623 242.462C124.178 240.574 124.116 238.616 124.441 236.704V236.635C125.121 233.163 126.956 232.307 129.995 230.722C133.503 228.869 137.17 227.332 140.951 226.13C148.291 223.836 156.194 223.01 163.769 224.692C167.307 225.484 170.718 226.795 174.261 227.563C175.656 227.866 177.06 228.081 178.474 228.262C180.671 228.536 182.878 228.717 185.09 228.971C192.163 229.785 199.128 231.351 205.868 233.642C208.378 234.493 210.889 235.466 213.047 237.007C214.754 238.246 216.197 239.812 217.292 241.614C218.388 243.415 219.114 245.417 219.428 247.502C219.633 248.94 219.638 250.437 219.951 251.83C220.248 253.002 220.641 254.147 221.126 255.254C225.307 265.586 228.724 276.211 231.348 287.043C231.497 287.848 231.773 288.624 232.165 289.342C232.792 290.354 233.868 291.034 234.499 292.046C235.967 294.433 234.553 297.764 235.855 300.248C236.305 301.109 237.054 301.789 237.504 302.649C238.972 305.471 236.804 308.846 234.299 310.787Z" fill="#454B69"/>
<path opacity="0.1" d="M209.293 254.594C209.989 254.043 210.589 253.383 211.07 252.637C211.552 251.888 211.743 250.989 211.608 250.109C211.799 251.222 211.726 252.365 211.395 253.445C211.065 254.526 210.486 255.513 209.704 256.33C208.476 257.587 206.171 258.819 204.375 258.389C204.63 256.951 208.153 255.562 209.293 254.594Z" fill="black"/>
<path opacity="0.1" d="M178.719 230.219C178.571 230.743 178.295 231.222 177.916 231.613C177.537 232.004 177.066 232.295 176.546 232.458C175.503 232.777 174.41 232.905 173.321 232.835H172.343C159.502 232.551 146.525 229.705 133.983 232.419C132.471 232.731 130.988 233.168 129.549 233.725C127.716 234.447 126 235.436 124.455 236.66V236.591C125.136 233.119 126.971 232.263 130.009 230.678C133.514 228.841 137.176 227.318 140.951 226.13C148.291 223.836 156.194 223.01 163.769 224.692C167.307 225.484 170.718 226.795 174.261 227.563C175.656 227.866 177.06 228.081 178.474 228.262C178.749 228.876 178.834 229.557 178.719 230.219Z" fill="black"/>
<path d="M178.719 229.519C178.572 230.044 178.297 230.525 177.917 230.917C177.538 231.309 177.067 231.6 176.546 231.764C175.503 232.083 174.41 232.209 173.321 232.136H172.343C159.502 231.852 146.525 229.006 133.983 231.72C132.472 232.032 130.989 232.467 129.549 233.021C127.63 233.786 125.839 234.842 124.24 236.151C123.865 235.121 123.491 234.089 123.119 233.055C122.669 231.823 124.098 231.549 124.372 230.443C124.553 229.695 124.245 228.844 124.088 228.047C124.048 227.852 124.022 227.654 124.01 227.455C123.922 225.69 124.553 224.672 126.002 223.719C130.298 220.882 135.539 218.936 140.442 217.473C143.049 216.65 145.742 216.128 148.468 215.918C152.324 215.693 156.175 216.407 159.928 217.312C164.543 218.452 169.108 219.958 173.199 222.369C175.205 223.538 177.163 225.005 178.244 227.088C178.676 227.821 178.843 228.678 178.719 229.519Z" fill="#F9B8C1"/>
<path opacity="0.1" d="M137.384 200.146C135.916 204.797 131.908 208.988 127.029 209.189C126.674 209.23 126.315 209.166 125.997 209.003C125.385 208.621 125.37 207.726 125.62 207.047C125.87 206.367 126.305 205.755 126.374 205.041C126.388 204.896 126.378 204.749 126.344 204.606C128.933 200.958 131.443 197.27 132.437 192.952C132.638 192.208 132.699 191.434 132.618 190.668C132.485 189.787 132.04 188.99 131.796 188.139C131.365 186.633 131.566 185.039 131.688 183.478C132.197 176.609 131.05 169.717 128.341 163.383C127.68 161.857 126.927 160.311 126.697 158.683C127.035 158.034 127.612 157.541 128.306 157.308C129.912 156.77 130.964 157.607 131.199 159.128C131.59 161.715 131.365 164.356 131.879 166.953C132.354 169.381 133.074 171.756 134.027 174.039C134.893 176.103 135.945 178.099 136.611 180.236C137.112 181.998 137.47 183.797 137.682 185.616C138.353 190.467 138.867 195.495 137.384 200.146Z" fill="black"/>
<path opacity="0.1" d="M178.719 229.519C178.572 230.045 178.297 230.525 177.917 230.917C177.538 231.309 177.067 231.6 176.546 231.764C175.503 232.084 174.41 232.21 173.321 232.136H172.343C168.163 229.361 163.138 228.149 158.152 228.712C156.556 228.903 154.961 229.275 153.366 229.128C150.141 228.835 147.528 226.516 144.656 225.035C141.387 223.421 137.711 222.821 134.098 223.311C130.486 223.801 127.103 225.358 124.382 227.783L124.103 228.028C124.063 227.832 124.037 227.635 124.025 227.436C123.937 225.67 124.568 224.653 126.016 223.699C130.313 220.863 135.554 218.916 140.457 217.454C143.064 216.63 145.756 216.109 148.482 215.899C152.338 215.674 156.189 216.388 159.943 217.293C164.557 218.432 169.123 219.938 173.214 222.35C175.205 223.538 177.163 225.005 178.244 227.089C178.676 227.821 178.843 228.679 178.719 229.519Z" fill="black"/>
<path d="M189.695 175.947L189.626 176.123C188.53 178.964 186.514 181.366 185.222 184.134C183.593 187.64 183.192 191.572 182.829 195.426C182.516 198.728 182.208 202.048 182.458 205.359C183.084 213.517 187.072 221.254 188.139 229.255C188.402 231.103 188.469 232.973 188.339 234.835C188.251 236.014 188.036 237.281 187.253 238.151C186.47 239.022 184.948 239.364 184.107 238.528C184.483 237.809 184.865 237.095 185.247 236.376C183.01 234.64 179.644 235.887 177.031 234.801C175.881 234.312 174.961 233.432 173.997 232.644C171.797 230.857 169.261 229.526 166.539 228.732C163.817 227.937 160.964 227.694 158.147 228.018C156.552 228.213 154.956 228.585 153.361 228.438C150.136 228.14 147.523 225.827 144.651 224.345C141.382 222.733 137.706 222.132 134.094 222.621C130.482 223.11 127.099 224.666 124.377 227.089C123.692 227.724 122.772 228.468 121.93 228.067C121.605 227.868 121.342 227.581 121.172 227.24C117.967 221.768 120.325 214.71 123.751 209.379C127.176 204.049 131.712 199.133 133.122 192.957C133.325 192.213 133.387 191.439 133.303 190.673C133.171 189.792 132.725 188.995 132.481 188.144C132.05 186.638 132.251 185.043 132.373 183.483C132.886 176.613 131.742 169.719 129.036 163.383C128.253 161.558 127.323 159.71 127.323 157.729C127.323 154.609 129.559 152.022 131.409 149.513C133.538 146.627 135.324 143.434 138.02 141.062C140.574 138.807 144.274 137.428 147.435 138.572C152.807 137.269 158.335 136.731 163.857 136.973C165.766 137.061 167.738 137.262 169.412 138.186C171.203 139.164 172.49 140.905 174.251 141.947C175.538 142.715 177.021 143.077 178.42 143.615C182.285 145.123 185.475 147.974 187.405 151.645C189.362 155.435 189.852 159.793 190.282 164.038C190.693 168.034 191.085 172.186 189.695 175.947Z" fill="#C594FE"/>
<path opacity="0.1" d="M182.458 205.359C183.084 213.517 187.072 221.254 188.139 229.255C186.005 227.45 183.035 225.636 182.639 223.538C182.198 221.269 180.789 218.295 180.554 216.001C180.319 213.708 181.929 210.905 180.241 209.331C179.419 208.563 181.606 208.778 180.804 207.99C178.998 206.235 178.553 203.53 178.44 201.021C178.249 196.581 178.812 192.091 177.995 187.724C177.505 185.029 176.483 182.461 175.665 179.845C174.716 176.798 174.031 173.678 173.346 170.552C172.672 167.774 172.181 164.954 171.878 162.111C171.667 159.666 171.765 157.074 172.857 154.844C173.948 152.613 176.155 150.804 178.631 150.838C186.911 150.946 185.482 162.165 187.302 167.349C188.031 169.413 189.015 171.408 189.411 173.56C189.556 174.404 189.634 175.257 189.646 176.113C188.55 178.955 186.534 181.356 185.242 184.124C183.612 187.631 183.211 191.563 182.849 195.417C182.516 198.728 182.208 202.048 182.458 205.359Z" fill="black"/>
<path d="M187.84 167.222C188.569 169.286 189.553 171.281 189.949 173.433C190.61 177.037 189.587 180.867 190.698 184.359C190.987 185.104 191.229 185.867 191.422 186.643C191.613 187.753 191.393 188.887 191.393 190.017C191.393 191.837 191.966 193.597 192.474 195.343C194.195 201.276 195.334 207.363 195.875 213.517C195.956 215.171 196.217 216.81 196.653 218.408C196.859 218.949 197.035 219.501 197.182 220.061C197.313 220.808 197.345 221.569 197.275 222.325C197.143 224.721 196.874 227.128 197.143 229.514C197.412 231.901 198.283 234.322 200.079 235.921C198.474 236.268 196.776 236.616 195.21 236.102C193.008 235.383 191.687 233.168 190.566 231.153C189.147 228.58 183.754 226.262 183.196 223.372C182.761 221.107 181.352 218.134 181.117 215.835C180.882 213.536 182.487 210.744 180.799 209.169C179.981 208.401 182.169 208.612 181.361 207.829C179.561 206.073 179.115 203.369 179.003 200.855C178.812 196.419 179.37 191.929 178.557 187.562C178.068 184.867 177.045 182.3 176.228 179.678C175.279 176.636 174.594 173.516 173.909 170.386C173.232 167.608 172.742 164.788 172.441 161.945C172.23 159.499 172.323 156.902 173.419 154.672C174.515 152.442 176.722 150.638 179.194 150.667C187.439 150.814 186.02 162.038 187.84 167.222Z" fill="#C594FE"/>
<path opacity="0.1" d="M164.244 169.134C165.017 170.039 166.011 171.032 167.18 170.856C167.091 170.996 166.951 171.097 166.789 171.135C166.627 171.173 166.457 171.147 166.314 171.061C166.033 170.875 165.808 170.616 165.663 170.313L163.99 167.491C163.769 167.124 162.252 164.987 161.881 166.219C161.734 166.743 163.867 168.694 164.244 169.134Z" fill="black"/>
<path opacity="0.1" d="M163.344 176.172C163.296 175.25 162.907 174.378 162.252 173.726C161.664 173.193 160.978 172.78 160.231 172.509C158.396 171.755 156.224 171.149 154.232 171.247C154.956 172.303 157.281 172.934 158.445 173.531C160.096 174.382 161.729 175.262 163.344 176.172Z" fill="black"/>
<path opacity="0.1" d="M168.555 196.204C168.218 198.708 166.167 200.605 164.092 202.073C162.018 203.54 159.688 204.802 158.333 206.924C157.393 208.391 156.972 210.093 156.175 211.624C155.294 213.311 153.978 214.73 152.925 216.314C151.873 217.899 151.051 219.792 151.374 221.67C151.379 221.756 151.401 221.841 151.44 221.918C151.479 221.995 151.533 222.064 151.599 222.12C151.7 222.162 151.81 222.178 151.919 222.166C152.028 222.154 152.132 222.115 152.221 222.051C154.354 220.936 155.196 218.388 156.092 216.182C157.032 213.956 158.09 211.781 159.263 209.668C159.791 208.69 160.373 207.624 161.357 207.081C162.03 206.8 162.72 206.56 163.422 206.362C164.418 205.905 165.291 205.22 165.971 204.362C168.643 201.176 170.038 197.115 169.886 192.961C169.857 192.086 169.808 187.87 168.492 189.171C167.175 190.472 168.78 194.502 168.555 196.204Z" fill="black"/>
<path d="M171.78 100.166C175.988 102 179.61 106.035 179.477 110.607C179.365 115.41 175.342 119.934 176.727 124.536C177.53 127.206 179.947 128.996 181.861 131.026C189.147 138.734 189.132 152.188 181.821 159.881C179.022 162.815 175.426 164.904 172.465 167.706C162.027 177.536 161.582 194.541 167.17 207.741C162.889 208.667 158.524 209.158 154.144 209.208C152.094 209.208 149.583 208.861 148.839 206.949C148.154 205.183 149.329 202.797 147.978 201.491C147.342 200.879 146.388 200.796 145.531 200.654C140.021 199.764 135.5 195.368 133.435 190.188C131.37 185.009 131.477 179.18 132.662 173.731C133.503 169.794 134.82 165.461 132.867 161.94C130.42 157.509 123.384 155.641 123.491 150.574C123.579 146.422 128.478 144.402 131.257 141.316C136.386 135.633 133.944 126.815 133.934 119.156C133.934 112.417 136.293 105.462 141.313 100.973C148.781 94.2384 163.163 96.4245 171.78 100.166Z" fill="#322C3A"/>
<g opacity="0.1">
<path opacity="0.1" d="M133.67 156.917C131.521 153.044 125.879 151.127 124.568 147.317C123.912 148.206 123.543 149.274 123.511 150.378C123.403 155.445 130.43 157.313 132.887 161.749C133.693 163.32 134.033 165.088 133.865 166.845C134.639 163.441 135.319 159.891 133.67 156.917Z" fill="black"/>
<path opacity="0.1" d="M177.29 118.266C178.171 115.699 179.448 113.106 179.512 110.441C179.521 110.152 179.512 109.863 179.487 109.575C178.504 112.52 176.996 115.376 177.29 118.266Z" fill="black"/>
<path opacity="0.1" d="M134.511 131.945C136.195 126.629 134.741 120.037 134.737 114.138C134.737 113.424 134.766 112.705 134.82 111.991C134.24 114.271 133.947 116.614 133.949 118.966C133.958 123.176 134.697 127.744 134.511 131.945Z" fill="black"/>
<path opacity="0.1" d="M182.639 154.878C179.84 157.812 176.243 159.9 173.282 162.703C167.997 167.677 165.281 174.489 164.601 181.713C165.864 176.333 168.413 171.379 172.499 167.53C175.435 164.742 179.057 162.664 181.856 159.705C185.185 156.078 187.119 151.389 187.312 146.471C186.467 149.613 184.862 152.5 182.639 154.878Z" fill="black"/>
<path opacity="0.1" d="M154.961 204.19C152.911 204.19 150.4 203.838 149.657 201.926C148.972 200.165 150.146 197.779 148.795 196.468C148.159 195.857 147.2 195.773 146.349 195.632C140.844 194.746 136.322 190.345 134.257 185.17C132.735 181.346 132.407 177.174 132.789 173.056C132.75 173.218 132.716 173.379 132.681 173.545C131.517 178.994 131.394 184.828 133.454 190.007C135.515 195.187 140.041 199.583 145.546 200.469C146.417 200.61 147.376 200.698 147.993 201.305C149.358 202.616 148.169 205.002 148.854 206.763C149.598 208.675 152.108 209.052 154.159 209.027C158.539 208.977 162.903 208.485 167.185 207.56C166.581 206.133 166.054 204.675 165.604 203.193C162.09 203.817 158.53 204.151 154.961 204.19Z" fill="black"/>
</g>
<path opacity="0.1" d="M170.987 182.862C172.196 183.772 173.507 180.304 172.759 179.439C172.558 179.664 170.801 182.735 170.987 182.862Z" fill="black"/>
<path opacity="0.1" d="M176.14 245.629C177.564 245.14 179.076 244.651 180.006 243.477C180.774 242.533 181.405 238.787 179.781 240.582C178.401 242.122 177.75 244.152 176.14 245.629Z" fill="black"/>
<path opacity="0.1" d="M190.639 241.702C190.468 242.856 190.15 244.054 189.333 244.886C189.181 245.042 188.843 245.14 188.799 244.93C189.712 244.444 190.561 243.846 191.324 243.15C192.978 241.511 193.204 237.476 190.683 236.405C190.659 238.176 190.909 239.902 190.639 241.702Z" fill="black"/>
<path d="M208.045 234.429C208.045 234.429 194.158 228.976 189.137 229.539C184.116 230.101 194.823 238.009 194.823 238.009L201.224 242.323C201.224 242.323 205.139 240.856 205.398 240.743C205.657 240.631 208.045 234.429 208.045 234.429Z" fill="#454B69"/>
<path d="M112.491 175.927C112.491 175.927 122.924 169.882 136.694 177.394C150.464 184.906 152.759 229.113 152.759 229.113C152.759 229.113 147.127 274.151 168.844 264.13C168.844 264.13 208.481 251.83 212.45 254.54C212.45 254.54 216.208 254.54 208.696 256.208C201.185 257.875 172.167 267.065 172.167 267.065C172.167 267.065 162.786 270.342 158.812 267.065C154.839 263.788 143.579 267.485 142.116 244.959C141.148 230.764 139.406 216.631 136.899 202.625L133.029 191.157L112.491 175.927Z" fill="#565661"/>
<path d="M111.238 245.58C111.238 245.58 115.828 199.911 108.302 183.434C101.755 169.075 127.073 175.79 133.68 177.747C134.702 178.052 135.594 178.689 136.214 179.556C140.129 185.058 154.173 207.11 150.033 236.616C150.033 236.616 148.365 262.893 158.798 267.06L126.652 256.711C124.044 255.87 121.397 255.171 118.725 254.564C115.319 253.792 109.77 251.596 111.238 245.58Z" fill="#322C3A"/>
<path d="M339.865 330.839H344.039L346.775 274.773L346.961 271.584L343.413 270.337L343.178 273.726L339.865 330.839Z" fill="#565661"/>
<path opacity="0.1" d="M343.178 273.726L346.775 274.773L346.961 271.584L343.413 270.337L343.178 273.726Z" fill="black"/>
<path d="M305.014 309.188C304.912 309.956 304.714 310.708 304.427 311.428C304.13 312.368 303.493 313.163 302.641 313.658C302.068 313.895 301.455 314.016 300.835 314.015C298.53 314.152 296.093 314.118 294.112 312.944C293.267 312.401 292.493 311.755 291.807 311.022C287.353 306.6 283.305 301.788 279.71 296.644C279.108 295.778 278.487 294.756 278.756 293.709C283.412 292.418 287.834 290.396 291.856 287.718C292.411 287.293 293.032 286.962 293.696 286.74C294.831 286.497 296 286.454 297.15 286.613C298.261 286.794 298.31 286.828 298.736 288.08C299.441 290.198 299.323 292.482 300.116 294.599C300.619 295.77 301.232 296.89 301.946 297.945C303.991 301.363 305.562 305.398 305.014 309.188Z" fill="#A26565"/>
<path opacity="0.1" d="M305.014 309.188C304.911 309.956 304.714 310.708 304.427 311.428C304.13 312.368 303.493 313.163 302.641 313.658C302.068 313.895 301.455 314.016 300.835 314.015C298.53 314.152 296.093 314.118 294.112 312.944C293.267 312.4 292.493 311.755 291.807 311.022C287.353 306.6 283.305 301.788 279.71 296.644C279.108 295.778 278.487 294.756 278.756 293.709C280.275 293.288 281.771 292.789 283.238 292.213L283.312 292.266C284.814 293.338 285.905 294.873 286.967 296.38L290.393 301.197C291.003 302.143 291.724 303.013 292.541 303.789C293.553 304.601 294.671 305.272 295.863 305.784C297.473 306.562 299.083 307.339 300.757 307.965C301.838 308.401 303.668 308.572 305.014 309.188Z" fill="black"/>
<path d="M308.175 256.961C307.838 257.773 307.429 258.554 306.952 259.294C302.404 266.927 298.895 275.132 296.519 283.693C295.844 283.542 295.462 284.461 295.467 285.16C295.472 285.86 295.467 286.74 294.821 286.994C294.63 287.068 294.415 287.068 294.229 287.151C293.818 287.337 293.7 287.86 293.642 288.31L293.064 292.545C292.864 294.012 292.688 295.602 293.407 296.898C293.903 297.668 294.547 298.333 295.301 298.854L304.853 306.386C305.244 306.694 305.729 307.022 306.198 306.85C307.27 306.459 306.321 304.542 307.177 303.764C307.745 303.231 308.645 303.632 309.433 303.569C310.461 303.491 311.239 302.547 311.498 301.554C311.68 300.543 311.698 299.509 311.552 298.492C311.487 298.028 311.541 297.556 311.708 297.118C312 296.654 312.402 296.27 312.878 295.998C314.535 294.788 315.871 293.191 316.767 291.346C317.664 289.501 318.094 287.465 318.021 285.415C317.943 284.791 317.966 284.158 318.089 283.542C318.288 282.977 318.589 282.453 318.975 281.996C322.445 277.306 325.337 272.215 328.209 267.133C329.863 264.199 331.547 261.221 332.124 257.914C332.174 257.791 332.195 257.658 332.185 257.526C332.174 257.394 332.133 257.265 332.065 257.152C331.997 257.038 331.903 256.941 331.791 256.87C331.679 256.799 331.551 256.754 331.419 256.741C329.986 256.294 328.525 255.944 327.045 255.694C322.547 254.784 318.207 253.381 313.832 252.031C309.457 250.681 309.492 253.43 308.175 256.961Z" fill="#454B69"/>
<path d="M287.491 342.699L294.381 343.53L326.095 271.584L334.649 270.958L349.677 275.34L352.593 361H359.478L356.767 272.21L373.253 272.63L402.673 345.824H408.932L377.99 260.282L376.801 256.985L330.685 255.406L319.191 261.847L319.044 262.218L287.491 342.699Z" fill="#565661"/>
<path opacity="0.1" d="M319.044 262.218C328.953 265.202 339.239 268.459 339.239 268.459C339.239 268.459 348.62 271.731 352.593 268.459C353.094 268.068 353.654 267.759 354.252 267.544C353.737 267.912 353.18 268.219 352.593 268.459L377.99 260.277L376.816 256.985L330.7 255.406L319.205 261.847L319.044 262.218Z" fill="black"/>
<path d="M365.948 248.021L347.171 243.849C347.171 243.849 302.308 252.192 298.971 255.528C298.971 255.528 334.859 262.825 338.823 265.309C342.787 267.794 366.368 270.542 365.948 248.021Z" fill="#322C3A"/>
<path d="M296.274 315.062C295.144 317.214 292.36 317.82 289.913 317.854C286.516 317.896 283.142 317.294 279.969 316.079C278.159 315.385 276.422 314.49 274.552 313.981C271.768 313.218 268.68 313.282 266.234 311.751C264.936 310.886 263.864 309.724 263.107 308.362C262.965 308.122 262.828 307.873 262.7 307.618C261.531 305.344 260.988 302.698 261.639 300.243C262.289 297.788 264.653 295.083 267.393 295.123C270.647 295.172 274.528 296.712 277.67 297.509C281.584 298.487 285.499 299.617 288.959 301.686C291.856 303.427 294.415 305.926 295.78 308.978C296.043 309.567 296.259 310.175 296.426 310.797C296.852 312.206 296.95 313.776 296.274 315.062Z" fill="#A26565"/>
<path opacity="0.1" d="M296.274 315.062C295.144 317.214 292.36 317.82 289.913 317.854C286.516 317.897 283.142 317.294 279.969 316.079C278.159 315.385 276.422 314.49 274.552 313.981C271.768 313.218 268.68 313.282 266.234 311.751C264.936 310.886 263.864 309.724 263.107 308.362C262.965 308.122 262.828 307.873 262.7 307.618C263.19 307.657 263.64 307.706 263.885 307.731C266.889 308.019 269.757 309.115 272.624 309.941C276.605 311.091 280.716 311.732 284.858 311.849C287.794 311.932 290.857 311.717 293.422 310.284C294.187 309.801 294.981 309.365 295.8 308.978C296.062 309.567 296.278 310.175 296.446 310.797C296.852 312.206 296.95 313.776 296.274 315.062Z" fill="black"/>
<path d="M317.302 222.071C310.94 221.029 304.461 220.775 298.012 220.52L290.123 220.207C289.562 220.142 288.994 220.211 288.465 220.408C288.008 220.701 287.575 221.028 287.168 221.386C286.375 221.924 285.362 221.983 284.408 222.036C277.639 222.409 270.907 223.282 264.266 224.648C260.841 225.347 257.283 226.262 254.709 228.624C251.989 231.123 250.795 234.933 250.702 238.621C250.609 242.308 251.578 245.932 252.6 249.473C253.902 253.736 254.622 258.154 254.739 262.609C254.693 263.845 254.74 265.083 254.881 266.312C255.108 267.485 255.454 268.632 255.913 269.735L259.515 279.345C259.833 280.187 260.146 281.023 260.493 281.844C260.841 282.666 261.174 283.312 261.472 284.084C261.913 285.141 262.26 286.236 262.607 287.327L265.005 294.854L265.318 295.832C266.185 298.541 267.07 301.3 268.705 303.628C270.339 305.956 272.869 307.834 275.712 307.975C276.629 307.941 277.548 307.965 278.462 308.049C279.242 308.239 279.998 308.513 280.718 308.865C282.853 309.752 285.145 310.199 287.456 310.181C289.585 310.181 291.949 309.589 293.104 307.799C293.74 306.821 293.906 305.618 294.082 304.464C294.39 302.146 294.689 299.725 293.901 297.524C293.412 296.208 292.59 295.079 292.022 293.783C291.229 292.017 290.97 290.066 290.456 288.202C289.344 284.192 287.082 280.594 283.948 277.854C282.835 273.45 282.017 268.976 281.501 264.463C281.429 263.464 281.23 262.478 280.909 261.529C280.336 260.061 279.177 258.873 278.692 257.376C278.237 255.988 278.374 254.383 277.547 253.185C284.432 255.078 291.249 254.652 298.398 254.54C300.688 254.547 302.975 254.417 305.249 254.149C306.309 253.954 307.382 253.84 308.459 253.806C310.671 253.806 312.746 254.784 314.777 255.645C320.517 258.091 326.565 260.013 332.799 260.277C339.234 260.546 345.596 259.034 351.884 257.538C354.649 256.878 357.521 256.164 359.713 254.349C361.906 252.535 363.139 249.263 361.788 246.773C360.76 244.9 358.632 243.981 356.645 243.198C351.145 241.027 345.615 238.909 340.316 236.283C332.222 232.341 326.169 223.538 317.302 222.071Z" fill="#454B69"/>
<path d="M305.959 199.945C305.19 201.608 303.898 202.968 302.944 204.533C301.348 207.109 300.821 210.206 301.476 213.165C301.82 214.627 302.495 215.991 303.45 217.152C304.404 218.313 305.612 219.239 306.981 219.86C308.203 220.347 309.489 220.656 310.798 220.78C312.521 220.99 314.356 221.034 315.878 220.202C317.017 219.519 317.951 218.543 318.584 217.376C319.9 215.175 320.649 212.695 321.334 210.225C322.601 205.667 323.683 200.992 323.526 196.263C323.472 194.634 323.149 192.8 321.799 191.861C321.102 191.459 320.328 191.205 319.528 191.118L313.074 189.963C311.826 189.738 309.648 188.824 308.567 189.724C307.485 190.624 307.402 193.284 307.216 194.531C306.923 196.375 306.742 198.248 305.959 199.945Z" fill="#F9B8C1"/>
<path d="M384.415 181.028L382.727 195.172C382.378 197.695 382.177 200.236 382.125 202.782C382.125 204.2 382.169 205.775 381.23 206.836C380.77 207.319 380.189 207.669 379.546 207.849C377.496 208.484 375.26 207.917 373.302 207.042C372.157 206.553 370.988 205.843 370.469 204.704C370.168 203.914 370.042 203.068 370.102 202.224C370.102 193.788 370.9 184.99 375.309 177.8C375.685 177.095 376.215 176.483 376.86 176.01C378.083 175.228 379.683 175.448 381.068 175.873C381.92 176.133 384.22 176.421 384.763 177.179C385.306 177.937 384.533 180.055 384.415 181.028Z" fill="#A1616A"/>
<path d="M339.626 129.882C349.355 129.882 357.242 121.999 357.242 112.275C357.242 102.551 349.355 94.6687 339.626 94.6687C329.896 94.6687 322.009 102.551 322.009 112.275C322.009 121.999 329.896 129.882 339.626 129.882Z" fill="#F9B8C1"/>
<path d="M334.913 138.514C334.85 139.883 334.477 141.221 333.822 142.426C342.816 141.057 351.788 139.531 360.736 137.848C357.767 136.323 355.522 133.686 354.492 130.513C354.005 128.811 353.739 127.054 353.699 125.284C353.557 122.478 353.611 119.666 353.861 116.868C350.729 117.195 347.763 118.369 344.778 119.376C341.777 120.39 338.724 121.244 335.633 121.934C334.14 122.267 332.638 122.55 331.131 122.815C329.369 123.128 328.522 123.123 329.746 124.668C333.029 128.796 335.373 132.992 334.913 138.514Z" fill="#F9B8C1"/>
<path d="M340.325 136.161C338.001 136.508 335.564 136.9 333.709 138.338C333.003 138.944 332.332 139.588 331.698 140.269C328.013 143.844 322.812 145.282 318.339 147.806C317.61 148.166 316.963 148.674 316.44 149.298C315.951 149.977 315.701 150.843 315.188 151.518C314.591 152.3 313.646 152.789 313.181 153.655C312.716 154.521 312.819 155.44 312.77 156.36C312.658 158.38 311.894 160.297 311.302 162.229C308.586 171.477 310.074 181.791 305.964 190.526C306.153 191.029 306.442 191.489 306.813 191.877C307.185 192.265 307.632 192.574 308.126 192.785C309.161 193.158 310.24 193.39 311.337 193.475L320.443 194.605C321.745 194.766 323.125 194.918 324.314 194.375C323.226 197.372 322.457 200.475 322.019 203.633C321.798 205.563 321.454 207.478 320.991 209.365C319.739 213.669 316.587 217.253 312.853 219.704C312.383 219.95 311.986 220.316 311.704 220.765C311.214 221.743 311.938 222.839 312.452 223.797C313.945 226.575 313.739 229.91 313.72 233.06C313.7 236.21 314.018 239.667 316.22 241.927C317.522 243.262 319.303 243.986 321.035 244.675L335.28 250.363C337.631 251.364 340.056 252.181 342.532 252.809C346.286 253.664 350.186 253.63 354.037 253.464C356.581 253.356 359.123 253.193 361.661 252.975C362.67 252.972 363.663 252.711 364.543 252.217C365.301 251.619 365.884 250.828 366.231 249.928C368.213 245.619 368.879 240.592 371.952 236.982C374.061 234.503 377.335 232.522 377.574 229.28C377.687 227.666 376.968 226.096 376.958 224.477C376.958 222.486 378 220.594 377.936 218.608C377.804 215.375 374.756 212.911 374.271 209.712C373.038 201.603 377.158 193.504 379.688 185.704C380.143 184.31 380.731 182.769 382.071 182.173C383.412 181.576 385.301 181.889 385.781 180.569C386.989 177.253 387.278 173.365 387.121 169.838C387.033 167.799 386.309 165.804 386.392 163.759C386.451 162.321 386.911 160.923 387.033 159.49C387.219 157.323 386.647 155.171 386.055 153.078C385.884 152.331 385.628 151.605 385.291 150.916C384.93 150.291 384.503 149.706 384.019 149.17L381.636 146.339C380.52 145.013 379.341 143.639 377.721 142.969C377.198 141.673 375.524 140.778 374.325 140.064C373.117 139.379 371.868 138.766 370.587 138.23L357.11 132.283C356.606 132.029 356.067 131.855 355.51 131.765C354.689 131.737 353.874 131.905 353.132 132.254C349.021 133.882 344.729 135.506 340.325 136.161Z" fill="#C594FE"/>
<path d="M326.051 115.337C325.532 113.512 324.206 111.938 324.006 110.05C323.825 108.372 324.564 106.749 324.984 105.115C325.405 103.482 325.391 101.486 324.094 100.401C323.878 100.215 323.604 100.048 323.526 99.7745C323.37 99.2855 323.864 98.8404 324.015 98.3465C324.294 97.3683 323.086 96.2875 323.526 95.3485C323.776 94.835 324.402 94.654 324.95 94.4926C327.045 93.8715 329.168 92.4923 329.623 90.3551C331.263 91.0398 333.01 89.7535 334.267 88.5064C335.525 87.2593 337.071 85.8361 338.803 86.2127L338.417 87.0001C341.088 86.0309 344.009 85.9982 346.702 86.9072H345.879C348.241 86.9472 350.531 87.7215 352.432 89.1227C352.221 89.1227 352.202 89.4357 352.285 89.6117C352.97 91.211 354.732 92.0571 356.43 92.4532C357.452 92.6977 358.563 92.8738 359.312 93.6074C360.061 94.341 360.075 95.8718 359.087 96.2239C361.103 97.0083 363.011 98.0435 364.768 99.305C365.258 99.6621 365.81 100.146 365.747 100.772C365.677 101.087 365.575 101.393 365.443 101.687C365.346 102.209 365.381 102.747 365.546 103.252L366.089 105.492C366.686 107.981 367.156 110.979 365.341 112.784C366.02 114.053 366.273 115.507 366.06 116.93C365.848 118.354 365.182 119.671 364.161 120.687C364.305 121.124 364.355 121.586 364.307 122.044C364.26 122.502 364.115 122.944 363.884 123.342C363.653 123.739 363.34 124.084 362.966 124.352C362.592 124.62 362.166 124.806 361.715 124.898C362.317 125.837 361.764 127.177 360.814 127.764C359.865 128.351 358.671 128.356 357.565 128.253C356.459 128.15 355.338 127.901 354.233 128.067C352.623 128.316 351.047 129.412 349.496 128.923C348.917 128.676 348.362 128.378 347.837 128.033C346.75 127.451 345.488 127.319 344.284 127.055C342.232 126.614 340.283 125.784 338.544 124.609C337.391 123.917 336.473 122.895 335.907 121.675C334.83 118.956 336.641 115.39 334.737 113.175C333.621 111.884 331.409 111.864 330.162 112.97C329.54 113.522 329.457 114.686 328.811 115.102C327.91 115.33 326.978 115.409 326.051 115.337Z" fill="#322C3A"/>
<path opacity="0.1" d="M302.112 255.572C301.417 255.022 300.817 254.361 300.336 253.616C299.854 252.867 299.662 251.967 299.798 251.087C299.607 252.201 299.68 253.343 300.01 254.423C300.341 255.504 300.92 256.492 301.701 257.308C302.93 258.565 305.234 259.797 307.03 259.367C306.776 257.929 303.253 256.54 302.112 255.572Z" fill="black"/>
<path d="M398.915 176.905C398.915 176.905 388.482 170.86 374.712 178.373C360.942 185.885 358.646 230.091 358.646 230.091C358.646 230.091 364.279 275.13 342.562 265.109C342.562 265.109 302.925 252.809 298.956 255.518C298.956 255.518 295.198 255.518 302.709 257.186C310.221 258.853 339.239 268.043 339.239 268.043C339.239 268.043 348.62 271.32 352.593 268.043C356.567 264.766 367.827 268.464 369.29 245.937C370.258 231.742 371.999 217.61 374.506 203.603L378.377 192.135L398.915 176.905Z" fill="#565661"/>
<path d="M400.168 246.558C400.168 246.558 395.577 200.889 403.104 184.413C409.651 170.054 384.332 176.768 377.726 178.725C376.704 179.03 375.812 179.667 375.191 180.534C371.277 186.036 357.232 208.088 361.372 237.594C361.372 237.594 363.041 263.871 352.608 268.038L384.753 257.689C387.361 256.848 390.009 256.149 392.681 255.542C396.086 254.77 401.636 252.574 400.168 246.558Z" fill="#322C3A"/>
<path d="M484.438 335.363C510.772 335.363 532.12 331.936 532.12 327.709C532.12 323.482 510.772 320.055 484.438 320.055C458.104 320.055 436.756 323.482 436.756 327.709C436.756 331.936 458.104 335.363 484.438 335.363Z" fill="white"/>
<path d="M485.969 181.082H482.901V250.124H485.969V181.082Z" fill="#535461"/>
<path d="M505.255 249.913L505.064 253.024L504.79 257.425L504.677 259.254L504.408 263.656L504.291 265.485L504.017 269.887L500.924 319.806C500.782 321.948 499.831 323.957 498.263 325.425C496.694 326.892 494.626 327.709 492.478 327.709H476.393C474.241 327.708 472.17 326.887 470.602 325.413C469.035 323.939 468.089 321.923 467.957 319.777L464.854 269.853L464.585 265.451L464.472 263.622L464.194 259.22L464.081 257.391L463.812 252.99L463.616 249.879C463.582 249.283 463.67 248.686 463.874 248.125C464.079 247.564 464.395 247.05 464.804 246.615C465.214 246.18 465.707 245.832 466.255 245.594C466.803 245.356 467.393 245.231 467.991 245.228H500.885C501.485 245.231 502.078 245.357 502.628 245.598C503.177 245.839 503.672 246.19 504.081 246.628C504.49 247.067 504.806 247.585 505.007 248.15C505.209 248.715 505.293 249.315 505.255 249.913Z" fill="#565661"/>
<path d="M505.064 253.024L504.79 257.411H464.086L463.812 253.024H505.064Z" fill="#9D9CB5"/>
<path d="M504.677 259.245L504.408 263.636H464.472L464.198 259.245H504.677Z" fill="#9D9CB5"/>
<path d="M504.291 265.466L504.016 269.853H464.859L464.585 265.466H504.291Z" fill="#9D9CB5"/>
<path d="M459.124 206.958C476.995 219.88 484.438 240.088 484.438 240.088C484.438 240.088 462.907 239.349 445.031 226.428C427.155 213.507 419.722 193.304 419.722 193.304C419.722 193.304 441.258 194.042 459.124 206.958Z" fill="#C594FE"/>
<path d="M419.722 193.304C419.722 193.304 442.07 205.702 449.244 215.967C456.418 226.233 484.438 240.088 484.438 240.088" stroke="#535461" stroke-width="2" stroke-miterlimit="10"/>
<path d="M470.658 180.93C480.386 187.958 484.438 198.962 484.438 198.962C484.438 198.962 472.693 198.556 462.99 191.528C453.286 184.501 449.239 173.497 449.239 173.497C449.239 173.497 460.935 173.898 470.658 180.93Z" fill="#C594FE"/>
<path d="M449.239 173.497C449.239 173.497 461.404 180.246 465.304 185.831C469.204 191.416 484.462 198.962 484.462 198.962" stroke="#535461" stroke-width="2" stroke-miterlimit="10"/>
<path d="M498.57 198.4C487.398 210.671 485.035 226.707 485.035 226.707C485.035 226.707 500.787 222.843 511.949 210.568C523.111 198.292 525.484 182.261 525.484 182.261C525.484 182.261 509.742 186.129 498.57 198.4Z" fill="#C594FE"/>
<path d="M525.494 182.266C525.494 182.266 510.941 194.844 507.241 203.511C503.542 212.177 485.035 226.707 485.035 226.707" stroke="#535461" stroke-width="2" stroke-miterlimit="10"/>
<path d="M272.556 168.86V169.975H239.471V169.07C240.378 168.73 241.237 168.273 242.026 167.711C243.431 166.705 244.575 165.38 245.365 163.844C246.155 162.307 246.567 160.605 246.567 158.878C246.567 157.976 246.454 157.077 246.229 156.203C245.829 154.63 245.082 153.167 244.042 151.92C243.002 150.674 241.696 149.676 240.22 148.999H272.331C270.855 149.676 269.549 150.674 268.509 151.92C267.469 153.167 266.722 154.63 266.322 156.203C266.098 157.077 265.987 157.976 265.989 158.878C265.988 160.605 266.399 162.307 267.188 163.843C267.977 165.379 269.121 166.705 270.525 167.711C271.16 168.164 271.841 168.549 272.556 168.86Z" fill="#DFE6F5"/>
<path opacity="0.1" d="M272.331 148.999C270.855 149.676 269.549 150.674 268.509 151.92C267.469 153.167 266.722 154.63 266.322 156.203H246.229C245.829 154.63 245.082 153.167 244.042 151.92C243.002 150.674 241.696 149.676 240.22 148.999H272.331Z" fill="black"/>
<path d="M201.591 143.302V149.581C201.591 153.044 204.126 155.856 207.258 155.856H304.593C307.725 155.856 310.265 153.044 310.265 149.581V143.302H201.591Z" fill="#DFE6F5"/>
<path opacity="0.1" d="M272.556 168.86V169.975H239.471V169.071C240.378 168.731 241.237 168.273 242.026 167.711H270.525C271.16 168.164 271.841 168.549 272.556 168.86Z" fill="black"/>
<path d="M281.829 168.058H230.198C229.282 168.058 228.539 168.799 228.539 169.714C228.539 170.628 229.282 171.369 230.198 171.369H281.829C282.745 171.369 283.488 170.628 283.488 169.714C283.488 168.799 282.745 168.058 281.829 168.058Z" fill="#DFE6F5"/>
<path d="M310.265 74.524C310.265 73.7799 310.118 73.043 309.833 72.3556C309.548 71.6681 309.13 71.0436 308.603 70.5176C308.077 69.9917 307.451 69.5746 306.763 69.2903C306.075 69.006 305.338 68.86 304.593 68.8606H207.258C206.513 68.86 205.776 69.006 205.088 69.2904C204.4 69.5748 203.776 69.9919 203.249 70.5179C202.723 71.044 202.306 71.6685 202.021 72.3559C201.736 73.0434 201.59 73.7801 201.591 74.524V144.524H310.265V74.524Z" fill="#474157"/>
<path d="M307.299 77.0526V137.208C307.3 137.574 307.228 137.937 307.089 138.276C306.949 138.615 306.743 138.923 306.484 139.182C306.225 139.442 305.917 139.647 305.579 139.788C305.24 139.928 304.877 140 304.51 140H207.346C206.979 140 206.616 139.928 206.277 139.788C205.938 139.647 205.631 139.442 205.372 139.182C205.113 138.923 204.907 138.615 204.767 138.276C204.627 137.937 204.556 137.574 204.556 137.208V77.0526C204.554 76.5632 204.682 76.082 204.928 75.6587C205.173 75.2347 205.526 74.8826 205.95 74.6379C206.374 74.3932 206.856 74.2646 207.346 74.2649H304.51C305.25 74.2649 305.959 74.5586 306.483 75.0814C307.006 75.6042 307.299 76.3132 307.299 77.0526Z" fill="#322C3A"/>
<path d="M255.928 72.8661C256.649 72.8661 257.234 72.2815 257.234 71.5603C257.234 70.8392 256.649 70.2545 255.928 70.2545C255.206 70.2545 254.621 70.8392 254.621 71.5603C254.621 72.2815 255.206 72.8661 255.928 72.8661Z" fill="white"/>
<path d="M255.928 153.063C257.709 153.063 259.153 151.62 259.153 149.84C259.153 148.06 257.709 146.617 255.928 146.617C254.147 146.617 252.703 148.06 252.703 149.84C252.703 151.62 254.147 153.063 255.928 153.063Z" fill="white"/>
<path d="M307.299 77.0526H204.566C204.566 76.3132 204.86 75.6042 205.383 75.0814C205.906 74.5586 206.616 74.2649 207.355 74.2649H304.51C305.25 74.2649 305.959 74.5586 306.483 75.0814C307.006 75.6042 307.299 76.3132 307.299 77.0526Z" fill="#C8CAD7"/>
<path d="M207.346 76.3581C207.732 76.3581 208.045 76.045 208.045 75.6587C208.045 75.2725 207.732 74.9594 207.346 74.9594C206.959 74.9594 206.646 75.2725 206.646 75.6587C206.646 76.045 206.959 76.3581 207.346 76.3581Z" fill="#EDEDF4"/>
<path d="M209.44 76.3581C209.827 76.3581 210.14 76.045 210.14 75.6587C210.14 75.2725 209.827 74.9594 209.44 74.9594C209.054 74.9594 208.74 75.2725 208.74 75.6587C208.74 76.045 209.054 76.3581 209.44 76.3581Z" fill="#EDEDF4"/>
<path d="M211.534 76.3581C211.921 76.3581 212.234 76.045 212.234 75.6587C212.234 75.2725 211.921 74.9594 211.534 74.9594C211.148 74.9594 210.835 75.2725 210.835 75.6587C210.835 76.045 211.148 76.3581 211.534 76.3581Z" fill="#EDEDF4"/>
<ellipse rx="6.57689" ry="4.63473" transform="matrix(0.998488 0.0549653 -0.0567281 0.99839 245.83 125.989)" fill="white"/>
<path d="M250.754 126.925C250.956 125.931 258.265 86.7838 244.018 88.9033C239.54 89.5695 234.197 96.266 233.085 101.731" stroke="white" stroke-width="3"/>
<path d="M255 88.4423C258.689 87.6421 261.826 86.5764 265.523 88.1954C268.114 89.3298 269.831 91.0802 270.378 93.8137C270.983 96.8323 270.274 99.5902 268.425 102.069C266.823 104.218 264.948 106.484 262.776 108.12C262.501 108.327 260.459 109.245 260.622 109.716C261.022 110.877 261.455 110.712 262.657 110.492C265.995 109.882 270.479 109.339 273.363 111.498C275.099 112.798 275.215 114.816 274.951 116.79C274.494 120.196 273.265 123.448 273.472 126.933C273.581 128.751 274.075 129.573 275.9 129.914C277.244 130.165 278.829 130.563 280.19 130.214C281.299 129.93 282.508 128.874 281.778 127.815" stroke="#C594FE" stroke-width="3" stroke-linecap="round"/>
<defs>
<linearGradient id="paint0_linear" x1="189.108" y1="228.756" x2="190.243" y2="228.756" gradientUnits="userSpaceOnUse">
<stop stop-color="#808080" stop-opacity="0.25"/>
<stop offset="0.54" stop-color="#808080" stop-opacity="0.12"/>
<stop offset="1" stop-color="#808080" stop-opacity="0.1"/>
</linearGradient>
</defs>
</svg>
