<svg width="350" height="350" viewBox="0 0 350 350" fill="none" xmlns="http://www.w3.org/2000/svg">
<path d="M213.359 131.624C213.359 131.624 213.359 131.624 213.359 131.624L211.412 107.271C211.318 106.104 211.172 104.845 210.301 104.063C209.862 103.668 209.331 103.391 208.757 103.256C208.184 103.121 207.586 103.132 207.018 103.289C206.45 103.446 205.931 103.744 205.507 104.155L185.833 122.67C182.212 126.078 177.154 127.387 172.207 126.873C163.316 125.949 155.388 119.28 155.164 110.344L154.982 103.045C154.953 101.865 154.87 100.587 154.027 99.7605C153.601 99.3436 153.078 99.0416 152.505 98.8826C151.933 98.7235 151.329 98.7127 150.751 98.851C150.173 98.9893 149.639 99.2722 149.199 99.6735L132.617 118.134C129.999 121.048 126.856 123.425 123.564 125.547C111.699 133.195 102.164 144.049 96.0901 156.916C89.1692 171.577 87.106 188.08 90.2031 204.005C93.3002 219.93 101.395 234.44 113.3 245.406C125.205 256.373 140.294 263.22 156.355 264.942C172.416 266.665 188.605 263.174 202.546 254.98C216.488 246.786 227.45 234.321 233.825 219.412C240.2 204.503 241.652 187.934 237.969 172.135C234.286 156.337 225.661 142.139 213.359 131.624C213.359 131.624 213.359 131.624 213.359 131.624Z" fill="#3F3D56"/>
<path d="M222.795 237.581C250.596 237.137 285.572 335.146 219.689 335.653C198.29 335.818 166.543 338.512 145.872 340.494C133.196 341.71 120.783 335.935 114.898 324.642C105.338 306.296 92.7777 276.84 93.9603 250.496C94.5922 236.419 108.535 228.592 122.582 229.697L222.795 237.581Z" fill="#3F3D56"/>
<path d="M161.643 289.375V326.261C161.643 333.934 167.863 340.154 175.536 340.154C181.382 340.154 186.603 336.493 188.596 330.997L204.026 288.449" fill="#3F3D56"/>
<path d="M222.914 343.521C233.601 343.521 242.263 340.62 242.263 337.042C242.263 333.464 233.601 330.563 222.914 330.563C212.228 330.563 203.565 333.464 203.565 337.042C203.565 340.62 212.228 343.521 222.914 343.521Z" fill="#3F3D56"/>
<path d="M245.538 322.956C245.738 322.984 245.891 322.75 245.793 322.573C245.751 322.499 245.672 322.456 245.586 322.459C245.567 322.46 245.548 322.46 245.528 322.461C245.227 322.472 245.205 322.911 245.504 322.952L245.538 322.956Z" fill="#3F3D56"/>
<path d="M346.467 293.689C338.923 281.576 320.464 278.21 309.164 286.887C304.065 290.803 300.628 296.463 296.271 301.198C288.943 309.113 279.168 314.309 268.532 315.946C261.128 317.061 253.296 316.456 246.459 319.518C246.076 319.689 245.7 319.879 245.33 320.085C234.414 326.17 246.219 336.812 258.708 336.35C277.402 335.658 296.096 334.966 314.789 334.274C322.112 334.003 329.695 333.667 336.242 330.363C348.952 323.949 354.011 305.802 346.467 293.689Z" fill="#3F3D56"/>
<path d="M158.568 258.602C148.114 258.699 137.753 256.622 128.136 252.502C108.057 243.746 98.8544 228.971 98.4724 228.347C98.3468 228.137 98.3085 227.887 98.3659 227.65C98.4232 227.412 98.5716 227.208 98.7787 227.08C98.9858 226.952 99.2348 226.911 99.4715 226.967C99.7081 227.023 99.9133 227.17 100.042 227.377C107.316 237.755 117.333 245.883 128.963 250.844C147.044 258.697 177.92 262.632 222.333 236.781C222.438 236.719 222.553 236.679 222.674 236.663C222.794 236.646 222.916 236.654 223.033 236.685C223.15 236.716 223.26 236.77 223.357 236.844C223.453 236.918 223.534 237.01 223.595 237.116C223.656 237.221 223.695 237.338 223.711 237.458C223.727 237.579 223.719 237.702 223.688 237.82C223.656 237.937 223.602 238.048 223.528 238.144C223.454 238.241 223.362 238.322 223.257 238.382C197.186 253.558 175.661 258.602 158.568 258.602Z" fill="white"/>
<path d="M162.564 211.626C160.854 211.624 159.215 210.941 158.005 209.726C156.796 208.512 156.116 206.865 156.114 205.147C156.114 204.902 156.211 204.666 156.384 204.493C156.557 204.319 156.791 204.221 157.036 204.221C157.28 204.221 157.514 204.319 157.687 204.493C157.86 204.666 157.957 204.902 157.957 205.147C157.957 206.374 158.442 207.552 159.306 208.419C160.17 209.287 161.342 209.775 162.564 209.775C163.786 209.775 164.957 209.287 165.821 208.419C166.685 207.552 167.171 206.374 167.171 205.147C167.171 204.902 167.268 204.666 167.441 204.493C167.613 204.319 167.848 204.221 168.092 204.221C168.337 204.221 168.571 204.319 168.744 204.493C168.916 204.666 169.014 204.902 169.014 205.147C169.012 206.865 168.331 208.512 167.122 209.726C165.913 210.941 164.274 211.624 162.564 211.626Z" fill="white"/>
<path d="M173.16 350C183.846 350 192.509 347.099 192.509 343.521C192.509 339.943 183.846 337.042 173.16 337.042C162.474 337.042 153.811 339.943 153.811 343.521C153.811 347.099 162.474 350 173.16 350Z" fill="#3F3D56"/>
<path d="M141.833 349.074C152.519 349.074 161.182 346.174 161.182 342.595C161.182 339.017 152.519 336.116 141.833 336.116C131.147 336.116 122.484 339.017 122.484 342.595C122.484 346.174 131.147 349.074 141.833 349.074Z" fill="#3F3D56"/>
<path d="M163.025 196.425C167.096 196.425 170.396 195.15 170.396 193.577C170.396 192.004 167.096 190.729 163.025 190.729C158.954 190.729 155.654 192.004 155.654 193.577C155.654 195.15 158.954 196.425 163.025 196.425Z" fill="white"/>
<path d="M112.642 192.963C113.075 193.418 113.802 193.374 114.227 192.912C116.196 190.779 118.56 189.044 121.19 187.809C124.17 186.409 127.42 185.683 130.71 185.683C134.001 185.683 137.251 186.409 140.231 187.809C145.048 190.072 151.423 190.638 153.564 185.765C154.22 184.272 154.732 182.71 155.09 181.101C156.166 176.257 155.788 171.202 154.004 166.574C152.219 161.946 149.109 157.953 145.066 155.101C141.023 152.249 136.229 150.665 131.29 150.55C126.351 150.434 121.489 151.793 117.318 154.454C113.148 157.115 109.857 160.958 107.861 165.498C105.865 170.038 105.254 175.07 106.105 179.959C106.956 184.848 109.231 189.373 112.642 192.963Z" fill="white"/>
<path d="M180.086 192.963C180.519 193.418 181.245 193.374 181.671 192.912C183.64 190.779 186.003 189.044 188.633 187.809C191.614 186.409 194.864 185.683 198.154 185.683C201.444 185.683 204.694 186.409 207.675 187.809C212.492 190.072 218.867 190.638 221.007 185.765C221.663 184.272 222.176 182.71 222.533 181.101C223.609 176.257 223.231 171.202 221.447 166.574C219.663 161.946 216.553 157.953 212.51 155.101C208.467 152.249 203.673 150.665 198.734 150.55C193.794 150.434 188.932 151.793 184.762 154.454C180.592 157.115 177.3 160.958 175.304 165.498C173.308 170.038 172.697 175.07 173.548 179.959C174.399 184.848 176.675 189.373 180.086 192.963Z" fill="white"/>
<path d="M119.759 186.708C124.505 186.708 128.352 182.844 128.352 178.077C128.352 173.309 124.505 169.445 119.759 169.445C115.013 169.445 111.167 173.309 111.167 178.077C111.167 182.844 115.013 186.708 119.759 186.708Z" fill="#3F3D56"/>
<path d="M187.2 186.708C191.946 186.708 195.793 182.844 195.793 178.077C195.793 173.309 191.946 169.445 187.2 169.445C182.455 169.445 178.608 173.309 178.608 178.077C178.608 182.844 182.455 186.708 187.2 186.708Z" fill="#3F3D56"/>
<path d="M89.6013 210.191C89.6013 215.319 85.2879 219.638 80.5593 217.654C77.6928 216.453 75.0877 214.691 72.8935 212.471C70.6994 210.251 68.9587 207.615 67.7714 204.713C66.5841 201.811 65.9734 198.702 65.9734 195.561V183.605C65.9734 177.262 68.4628 171.18 72.8935 166.695C80.1134 159.389 89.6013 168.018 89.6013 178.289V210.191Z" fill="#C594FE"/>
<path d="M240.074 168.975C240.074 163.848 244.387 159.529 249.116 161.511C251.983 162.713 254.587 164.475 256.781 166.695C258.975 168.916 260.716 171.552 261.903 174.454C263.091 177.354 263.702 180.464 263.702 183.605V195.561C263.702 198.702 263.091 201.811 261.903 204.713C260.716 207.615 258.975 210.251 256.781 212.471C254.587 214.691 251.983 216.453 249.116 217.654C244.388 219.638 240.074 215.319 240.074 210.191V168.975Z" fill="#C594FE"/>
<path d="M252.491 183.962C252.512 184.999 251.669 185.847 250.632 185.847C249.594 185.847 248.755 185 248.734 183.963C247.736 136.783 209.369 98.7129 162.351 98.7129C115.333 98.7129 76.9655 136.783 75.9679 183.963C75.946 185 75.107 185.847 74.0697 185.847C73.0323 185.847 72.1895 184.999 72.2105 183.962C73.2089 134.694 113.261 94.9246 162.351 94.9246C211.44 94.9246 251.493 134.694 252.491 183.962Z" fill="#C594FE"/>
<path d="M71.4221 115.422C71.4218 115.422 71.4218 115.421 71.422 115.421C71.4223 115.42 71.4222 115.42 71.4219 115.42L69.5284 114.159L61.5476 108.782L59.2377 107.227C58.9358 107.023 58.5257 107.109 58.3303 107.416L58.0502 107.857C54.7321 113.077 56.1744 119.991 61.3032 123.449L62.8892 124.519C62.8982 124.525 62.9061 124.532 62.9126 124.541C62.9372 124.574 62.9384 124.619 62.9155 124.653L61.9158 126.146C61.836 126.265 61.7448 126.376 61.6534 126.487C61.5672 126.591 61.4872 126.7 61.4139 126.815C60.5848 128.119 61.3639 129.726 62.2805 130.314C63.1972 130.902 64.6124 130.321 65.4417 129.015C66.2592 127.73 66.0656 125.857 65.1812 125.242C65.1806 125.242 65.1804 125.241 65.1808 125.24C65.1811 125.24 65.1809 125.239 65.1803 125.238L63.2873 123.978L61.5152 122.859C58.8966 121.204 58.1193 117.738 59.7808 115.123L62.5997 110.688C62.6964 110.536 62.6518 110.334 62.4999 110.237C62.3474 110.14 62.1447 110.184 62.0476 110.337L56.4719 119.109C56.3309 119.331 56.0371 119.397 55.815 119.256C55.592 119.115 55.5259 118.82 55.6674 118.598L61.3779 109.614C61.4125 109.559 61.4853 109.544 61.539 109.58L69.1305 114.699C69.1395 114.705 69.1474 114.712 69.1539 114.721C69.1786 114.754 69.1798 114.799 69.1569 114.833L68.1576 116.325C68.0776 116.445 67.9861 116.556 67.8945 116.667C67.8084 116.772 67.7285 116.881 67.6553 116.994C66.8262 118.299 67.605 119.907 68.5219 120.494C69.4384 121.082 70.8537 120.5 71.6828 119.196C72.5005 117.909 72.3066 116.037 71.4221 115.422Z" fill="#3F3D56"/>
<path d="M35.4682 95.179C35.4675 95.1785 35.4674 95.1775 35.4679 95.1768C35.4684 95.1761 35.4682 95.1751 35.4675 95.1746L32.547 93.1782L23.91 87.5727C22.2368 86.4868 22.2972 84.0178 24.0216 83.015C24.1758 82.9253 24.319 82.8183 24.4593 82.7082C25.2702 82.0721 26.2815 81.7421 27.314 81.7836C27.7915 81.8027 28.2579 81.9004 28.696 82.069C29.0706 82.2131 29.704 81.7219 29.5526 81.3503C29.5501 81.3442 29.5475 81.3383 29.5446 81.3324C29.4575 81.1568 28.0367 78.425 24.8649 80.475C24.8197 80.5042 24.8331 80.4838 24.7945 80.5213C24.0422 81.252 22.8271 87.7184 23.6894 88.3153L31.9182 94.0111C31.9318 94.0206 31.9438 94.0322 31.9537 94.0456C31.9915 94.0971 31.9926 94.1669 31.9564 94.2196L30.3746 96.5209C30.2472 96.7062 30.1019 96.8784 29.9566 97.0501C29.8212 97.2101 29.6952 97.3784 29.5797 97.5531C28.2656 99.5662 29.4465 102.082 30.861 103.012C32.2755 103.943 34.4878 103.066 35.8021 101.053C37.0981 99.0675 36.832 96.1529 35.4682 95.179Z" fill="#3F3D56"/>
<path d="M54.6951 66.3572C54.7296 66.4019 54.732 66.4637 54.701 66.511L53.3495 68.5755C53.2407 68.7416 53.1159 68.8965 52.991 69.051C52.8746 69.1951 52.7667 69.3464 52.6681 69.5031C51.5472 71.3075 52.6407 73.5061 53.9087 74.3002C55.1768 75.0945 57.1136 74.2753 58.2345 72.4708C59.3399 70.691 59.0467 68.1216 57.8226 67.2884C57.822 67.288 57.8219 67.2871 57.8223 67.2865C57.8227 67.2859 57.8226 67.285 57.8219 67.2846L55.2022 65.5791L52.7546 64.0677C49.1303 61.8297 48.0124 57.074 50.26 53.4556L54.0681 47.325C54.1988 47.1146 54.1349 46.8381 53.925 46.7065C53.7139 46.5741 53.4354 46.6385 53.3039 46.8502L45.7664 58.9851C45.5759 59.2919 45.1731 59.3866 44.8659 59.1969C44.5575 59.0065 44.4623 58.6018 44.6535 58.2939L52.3736 45.8652C52.4205 45.7898 52.5202 45.7677 52.5945 45.8164L63.1004 52.7438C63.1126 52.7519 63.1234 52.7619 63.1324 52.7735C63.167 52.8183 63.1694 52.88 63.1384 52.9274L61.7868 54.9918C61.678 55.158 61.5532 55.3129 61.4284 55.4674C61.3119 55.6115 61.204 55.7627 61.1055 55.9194C59.9846 57.7239 61.0779 59.9224 62.346 60.7166C63.6141 61.5108 65.551 60.6917 66.6719 58.8872C67.7772 57.1074 67.484 54.538 66.2599 53.7047C66.2592 53.7043 66.2591 53.7035 66.2596 53.7028C66.26 53.7022 66.2599 53.7014 66.2592 53.7009L63.6395 51.9955L52.9426 44.949C52.9425 44.9489 52.9423 44.9488 52.9422 44.9488C52.942 44.9488 52.9418 44.9487 52.9417 44.9486L52.5949 44.7204C50.4258 43.2916 47.5054 43.9332 46.1349 46.1396L44.0565 49.4858C41.6409 53.3749 42.7614 58.4802 46.5835 61.0003L54.6631 66.3275C54.6753 66.3355 54.6861 66.3456 54.6951 66.3572Z" fill="#3F3D56"/>
<path d="M34.157 20.6229C34.1559 20.6224 34.1554 20.6211 34.156 20.62C34.1565 20.6189 34.156 20.6176 34.1549 20.6171L29.169 18.5304L14.48 12.7917C11.6584 11.6894 10.9922 7.99817 13.2504 5.97904L13.4032 5.84237C13.523 5.73526 13.6293 5.61643 13.7322 5.49306C14.3121 4.79826 16.5587 2.45041 19.9702 3.10446C20.6493 3.23466 21.4281 2.33621 21.0435 1.76162C21.0369 1.75185 21.0307 1.74297 21.0234 1.73372C20.8283 1.48491 17.8637 -2.13959 13.7573 1.89442C13.6987 1.95203 13.7125 1.91739 13.6663 1.98538C12.7662 3.30939 12.9413 13.3578 14.4146 13.9844L28.4837 19.9689C28.5076 19.9791 28.5295 19.9932 28.5487 20.0106C28.6211 20.0765 28.644 20.1808 28.606 20.271L26.9475 24.2011C26.8145 24.5164 26.6511 24.8176 26.4872 25.1179C26.3334 25.3997 26.1964 25.6906 26.077 25.9891C24.7309 29.4054 27.2735 32.8035 29.6772 33.7603C32.0809 34.7172 35.121 32.7233 36.4674 29.307C37.7948 25.9383 36.4982 21.6589 34.157 20.6229Z" fill="#3F3D56"/>
</svg>
