<svg width="350" height="350" viewBox="0 0 350 350" fill="none" xmlns="http://www.w3.org/2000/svg">
<g clip-path="url(#clip0)">
<path d="M278.056 220.79C304.213 220.79 325.417 199.637 325.417 173.545C325.417 147.452 304.213 126.299 278.056 126.299C251.9 126.299 230.696 147.452 230.696 173.545C230.696 199.637 251.9 220.79 278.056 220.79Z" fill="#C594FE"/>
<path d="M227.689 207.882C253.845 207.882 275.049 186.73 275.049 160.637C275.049 134.544 253.845 113.392 227.689 113.392C201.533 113.392 180.329 134.544 180.329 160.637C180.329 186.73 201.533 207.882 227.689 207.882Z" fill="#C594FE"/>
<path d="M172.245 208.344C198.401 208.344 219.605 187.192 219.605 161.099C219.605 135.006 198.401 113.854 172.245 113.854C146.088 113.854 124.884 135.006 124.884 161.099C124.884 187.192 146.088 208.344 172.245 208.344Z" fill="#C594FE"/>
<path d="M154.223 220.79C180.38 220.79 201.584 199.637 201.584 173.545C201.584 147.452 180.38 126.299 154.223 126.299C128.067 126.299 106.863 147.452 106.863 173.545C106.863 199.637 128.067 220.79 154.223 220.79Z" fill="#C594FE"/>
<path d="M123.726 224.94C149.882 224.94 171.086 203.787 171.086 177.695C171.086 151.602 149.882 130.45 123.726 130.45C97.5694 130.45 76.3654 151.602 76.3654 177.695C76.3654 203.787 97.5694 224.94 123.726 224.94Z" fill="#C594FE"/>
<path d="M111.25 187.603C137.406 187.603 158.61 166.451 158.61 140.358C158.61 114.265 137.406 93.1129 111.25 93.1129C85.0935 93.1129 63.8895 114.265 63.8895 140.358C63.8895 166.451 85.0935 187.603 111.25 187.603Z" fill="#C594FE"/>
<path d="M125.111 144.272C151.267 144.272 172.471 123.12 172.471 97.0273C172.471 70.9346 151.267 49.7822 125.111 49.7822C98.9546 49.7822 77.7506 70.9346 77.7506 97.0273C77.7506 123.12 98.9546 144.272 125.111 144.272Z" fill="#C594FE"/>
<path d="M151.448 144.272C177.605 144.272 198.809 123.12 198.809 97.0273C198.809 70.9346 177.605 49.7822 151.448 49.7822C125.292 49.7822 104.088 70.9346 104.088 97.0273C104.088 123.12 125.292 144.272 151.448 144.272Z" fill="#C594FE"/>
<path d="M166.699 124.913C192.856 124.913 214.06 103.761 214.06 77.668C214.06 51.5753 192.856 30.423 166.699 30.423C140.543 30.423 119.339 51.5753 119.339 77.668C119.339 103.761 140.543 124.913 166.699 124.913Z" fill="#C594FE"/>
<path d="M205.512 146.116C231.669 146.116 252.873 124.964 252.873 98.8712C252.873 72.7785 231.669 51.6262 205.512 51.6262C179.356 51.6262 158.152 72.7785 158.152 98.8712C158.152 124.964 179.356 146.116 205.512 146.116Z" fill="#C594FE"/>
<path d="M296.077 187.603C322.234 187.603 343.438 166.451 343.438 140.358C343.438 114.265 322.234 93.1129 296.077 93.1129C269.921 93.1129 248.717 114.265 248.717 140.358C248.717 166.451 269.921 187.603 296.077 187.603Z" fill="#C594FE"/>
<path d="M268.814 164.094C294.97 164.094 316.174 142.941 316.174 116.849C316.174 90.7559 294.97 69.6036 268.814 69.6036C242.657 69.6036 221.453 90.7559 221.453 116.849C221.453 142.941 242.657 164.094 268.814 164.094Z" fill="#C594FE"/>
<path d="M251.256 140.584C277.412 140.584 298.616 119.432 298.616 93.3394C298.616 67.2466 277.412 46.0943 251.256 46.0943C225.099 46.0943 203.895 67.2466 203.895 93.3394C203.895 119.432 225.099 140.584 251.256 140.584Z" fill="#C594FE"/>
<path d="M217.988 105.092C244.145 105.092 265.349 83.9394 265.349 57.8467C265.349 31.7539 244.145 10.6016 217.988 10.6016C191.832 10.6016 170.628 31.7539 170.628 57.8467C170.628 83.9394 191.832 105.092 217.988 105.092Z" fill="#C594FE"/>
<path d="M279.905 144.272C306.061 144.272 327.265 123.12 327.265 97.0273C327.265 70.9346 306.061 49.7822 279.905 49.7822C253.748 49.7822 232.544 70.9346 232.544 97.0273C232.544 123.12 253.748 144.272 279.905 144.272Z" fill="#C594FE"/>
<g opacity="0.1">
<path opacity="0.1" d="M278.056 220.79C304.213 220.79 325.417 199.637 325.417 173.545C325.417 147.452 304.213 126.3 278.056 126.3C251.9 126.3 230.696 147.452 230.696 173.545C230.696 199.637 251.9 220.79 278.056 220.79Z" fill="black"/>
<path opacity="0.1" d="M227.689 207.882C253.846 207.882 275.05 186.73 275.05 160.637C275.05 134.544 253.846 113.392 227.689 113.392C201.533 113.392 180.329 134.544 180.329 160.637C180.329 186.73 201.533 207.882 227.689 207.882Z" fill="black"/>
<path opacity="0.1" d="M172.245 208.344C198.401 208.344 219.605 187.192 219.605 161.099C219.605 135.006 198.401 113.854 172.245 113.854C146.088 113.854 124.884 135.006 124.884 161.099C124.884 187.192 146.088 208.344 172.245 208.344Z" fill="black"/>
<path opacity="0.1" d="M154.223 220.79C180.38 220.79 201.584 199.637 201.584 173.545C201.584 147.452 180.38 126.3 154.223 126.3C128.067 126.3 106.863 147.452 106.863 173.545C106.863 199.637 128.067 220.79 154.223 220.79Z" fill="black"/>
<path opacity="0.1" d="M123.726 224.94C149.882 224.94 171.086 203.787 171.086 177.695C171.086 151.602 149.882 130.45 123.726 130.45C97.5695 130.45 76.3655 151.602 76.3655 177.695C76.3655 203.787 97.5695 224.94 123.726 224.94Z" fill="black"/>
<path opacity="0.1" d="M111.25 187.603C137.406 187.603 158.61 166.451 158.61 140.358C158.61 114.265 137.406 93.1129 111.25 93.1129C85.0935 93.1129 63.8895 114.265 63.8895 140.358C63.8895 166.451 85.0935 187.603 111.25 187.603Z" fill="black"/>
<path opacity="0.1" d="M125.111 144.272C151.268 144.272 172.472 123.12 172.472 97.0273C172.472 70.9346 151.268 49.7822 125.111 49.7822C98.9547 49.7822 77.7507 70.9346 77.7507 97.0273C77.7507 123.12 98.9547 144.272 125.111 144.272Z" fill="black"/>
<path opacity="0.1" d="M151.448 144.272C177.605 144.272 198.809 123.12 198.809 97.0273C198.809 70.9346 177.605 49.7822 151.448 49.7822C125.292 49.7822 104.088 70.9346 104.088 97.0273C104.088 123.12 125.292 144.272 151.448 144.272Z" fill="black"/>
<path opacity="0.1" d="M166.699 124.913C192.856 124.913 214.06 103.761 214.06 77.668C214.06 51.5753 192.856 30.423 166.699 30.423C140.543 30.423 119.339 51.5753 119.339 77.668C119.339 103.761 140.543 124.913 166.699 124.913Z" fill="black"/>
<path opacity="0.1" d="M205.512 146.116C231.669 146.116 252.873 124.964 252.873 98.8713C252.873 72.7785 231.669 51.6262 205.512 51.6262C179.356 51.6262 158.152 72.7785 158.152 98.8713C158.152 124.964 179.356 146.116 205.512 146.116Z" fill="black"/>
<path opacity="0.1" d="M296.077 187.603C322.234 187.603 343.438 166.451 343.438 140.358C343.438 114.265 322.234 93.1129 296.077 93.1129C269.921 93.1129 248.717 114.265 248.717 140.358C248.717 166.451 269.921 187.603 296.077 187.603Z" fill="black"/>
<path opacity="0.1" d="M268.814 164.094C294.97 164.094 316.174 142.941 316.174 116.849C316.174 90.756 294.97 69.6036 268.814 69.6036C242.657 69.6036 221.453 90.756 221.453 116.849C221.453 142.941 242.657 164.094 268.814 164.094Z" fill="black"/>
<path opacity="0.1" d="M251.256 140.584C277.412 140.584 298.616 119.432 298.616 93.3393C298.616 67.2466 277.412 46.0943 251.256 46.0943C225.099 46.0943 203.895 67.2466 203.895 93.3393C203.895 119.432 225.099 140.584 251.256 140.584Z" fill="black"/>
<path opacity="0.1" d="M217.988 105.092C244.145 105.092 265.349 83.9394 265.349 57.8467C265.349 31.7539 244.145 10.6016 217.988 10.6016C191.832 10.6016 170.628 31.7539 170.628 57.8467C170.628 83.9394 191.832 105.092 217.988 105.092Z" fill="black"/>
<path opacity="0.1" d="M279.905 144.272C306.061 144.272 327.265 123.12 327.265 97.0273C327.265 70.9346 306.061 49.7822 279.905 49.7822C253.748 49.7822 232.544 70.9346 232.544 97.0273C232.544 123.12 253.748 144.272 279.905 144.272Z" fill="black"/>
</g>
<path d="M254.666 256.338C254.666 256.338 283.62 232.061 269.296 197.493L254.971 192.141L239.428 239.876L254.666 256.338Z" fill="#67647E"/>
<path opacity="0.1" d="M256.208 190.496L259.636 191.776L244.376 238.642L257.691 253.024C256.588 254.119 255.902 254.693 255.902 254.693L240.661 238.231L256.208 190.496Z" fill="black"/>
<path d="M309.508 251.245C309.508 251.245 300.089 260.64 305.408 274.583C310.726 288.526 296.295 311.707 296.295 311.707L296.758 311.633C316.1 308.227 325.713 286.16 314.956 269.763C310.935 263.677 307.65 256.523 309.508 251.245Z" fill="#C594FE"/>
<path d="M309.508 251.245C309.508 251.245 304.189 262.762 309.508 272.157C314.826 281.552 310.434 307.918 296.291 311.707" stroke="#535461" stroke-miterlimit="10"/>
<path d="M326.283 289.247C326.283 289.247 315.535 287.542 314.557 297.15C313.58 306.758 293.886 308.089 293.886 308.089L294.257 308.334C310.513 318.963 326.051 315.113 323.707 300.981C322.841 295.726 322.91 290.449 326.283 289.247Z" fill="#C594FE"/>
<path opacity="0.2" d="M326.283 289.247C326.283 289.247 315.535 287.542 314.557 297.15C313.58 306.758 293.886 308.089 293.886 308.089L294.257 308.334C310.513 318.963 326.051 315.113 323.707 300.981C322.841 295.726 322.91 290.449 326.283 289.247Z" fill="#F5F5F5"/>
<path d="M326.283 289.247C326.283 289.247 317.944 291.096 318.625 298.642C319.306 306.189 306.237 315.28 293.891 308.089" stroke="#535461" stroke-miterlimit="10"/>
<path d="M123.902 205.774L127.664 220.794C127.664 220.794 154.242 224.251 171.962 222.079C175.094 221.636 178.102 220.553 180.797 218.899C182.293 218.017 184.656 217.633 187.885 220.046C193.416 224.205 220.564 257.479 216.167 292.001C215.826 294.603 214.635 297.019 212.778 298.877C210.922 300.735 208.503 301.931 205.897 302.28C200.483 303.015 195.308 304.969 190.762 307.992L177.327 316.916L315.081 313.912L300.78 296.641C300.78 296.641 290.995 288.383 283.467 287.63C281.271 287.412 279.46 285.402 277.996 282.671C269.421 266.657 259.164 251.601 248.045 237.223C239.947 226.751 233.151 215.715 233.786 208.783C235.291 192.261 233.786 165.231 233.786 165.231L205.183 161.478C205.183 161.478 208.945 197.525 174.32 206.532C139.695 215.54 123.902 205.774 123.902 205.774Z" fill="#67647E"/>
<g opacity="0.1">
<path opacity="0.1" d="M147.237 212.536C147.237 212.536 163.044 222.296 197.674 213.284C232.303 204.273 228.537 168.23 228.537 168.23L233.98 168.937C233.878 166.626 233.8 165.24 233.8 165.24L205.197 161.487C205.197 161.487 208.959 197.534 174.334 206.542C139.709 215.549 123.897 205.793 123.897 205.793L127.659 220.813C127.659 220.813 137.814 222.134 149.757 222.629L147.237 212.536Z" fill="black"/>
<path opacity="0.1" d="M214.097 314.748C218.643 311.725 223.818 309.772 229.232 309.036C231.832 308.692 234.247 307.502 236.103 305.652C237.958 303.802 239.151 301.394 239.498 298.8C243.917 264.277 216.756 230.943 211.238 226.802C205.216 222.296 202.204 227.551 202.204 227.551C200.073 228.109 197.906 228.521 195.719 228.785C205.475 241.725 219.434 266.546 216.167 292.038C215.821 294.633 214.628 297.041 212.772 298.891C210.917 300.741 208.502 301.93 205.901 302.275C200.488 303.011 195.312 304.964 190.766 307.987L177.331 316.911L211.966 316.158L214.097 314.748Z" fill="black"/>
</g>
<path d="M146.954 278.632C146.954 278.632 144.078 268.89 147.492 261.717C148.943 258.718 149.381 255.331 148.738 252.063C148.415 250.512 147.95 248.995 147.348 247.529" stroke="#535461" stroke-width="2" stroke-miterlimit="10"/>
<path d="M149.498 242.996C149.498 244.188 147.33 247.654 147.33 247.654C147.33 247.654 145.175 244.188 145.175 242.996C145.175 242.422 145.404 241.872 145.81 241.466C146.217 241.061 146.769 240.833 147.344 240.833C147.919 240.833 148.47 241.061 148.877 241.466C149.283 241.872 149.512 242.422 149.512 242.996H149.498Z" fill="#C594FE"/>
<path d="M153.084 249.609C152.435 250.612 148.729 252.345 148.729 252.345C148.729 252.345 148.798 248.264 149.447 247.261C149.597 247.014 149.796 246.799 150.031 246.629C150.267 246.46 150.534 246.339 150.816 246.275C151.099 246.21 151.392 246.203 151.678 246.253C151.964 246.303 152.237 246.411 152.48 246.568C152.724 246.726 152.933 246.93 153.096 247.17C153.258 247.41 153.371 247.68 153.428 247.964C153.484 248.248 153.482 248.54 153.423 248.823C153.364 249.107 153.249 249.375 153.084 249.614V249.609Z" fill="#C594FE"/>
<path d="M152.926 260.904C151.856 261.44 147.784 261.07 147.784 261.07C147.784 261.07 149.905 257.581 150.976 257.045C151.23 256.917 151.507 256.841 151.791 256.82C152.075 256.799 152.36 256.834 152.631 256.923C152.901 257.012 153.151 257.153 153.367 257.339C153.582 257.524 153.759 257.75 153.887 258.004C154.015 258.257 154.092 258.534 154.113 258.817C154.134 259.1 154.099 259.385 154.01 259.655C153.92 259.924 153.779 260.174 153.593 260.389C153.407 260.604 153.18 260.781 152.926 260.908V260.904Z" fill="#C594FE"/>
<path d="M150.878 269.44C149.915 270.151 145.838 270.47 145.838 270.47C145.838 270.47 147.339 266.671 148.303 265.964C148.766 265.651 149.333 265.528 149.884 265.622C150.436 265.716 150.93 266.02 151.263 266.469C151.596 266.918 151.741 267.477 151.67 268.031C151.598 268.585 151.315 269.09 150.878 269.44Z" fill="#C594FE"/>
<path d="M144.175 252.585C145.032 253.417 149.034 254.281 149.034 254.281C149.034 254.281 148.057 250.316 147.181 249.484C146.766 249.104 146.218 248.901 145.654 248.917C145.09 248.933 144.555 249.168 144.162 249.572C143.769 249.975 143.549 250.516 143.549 251.078C143.548 251.641 143.768 252.181 144.161 252.585H144.175Z" fill="#C594FE"/>
<path d="M141.905 262.577C142.975 263.113 147.047 262.743 147.047 262.743C147.047 262.743 144.925 259.254 143.855 258.718C143.342 258.46 142.746 258.416 142.2 258.596C141.654 258.776 141.202 259.164 140.943 259.677C140.685 260.189 140.641 260.783 140.821 261.328C141.001 261.872 141.391 262.323 141.905 262.581V262.577Z" fill="#C594FE"/>
<path d="M141.034 272.601C141.997 273.312 146.074 273.631 146.074 273.631C146.074 273.631 144.573 269.832 143.61 269.125C143.146 268.812 142.579 268.689 142.028 268.783C141.476 268.877 140.982 269.181 140.649 269.63C140.317 270.079 140.171 270.638 140.242 271.192C140.314 271.746 140.598 272.251 141.034 272.601Z" fill="#C594FE"/>
<path d="M140.696 277.68C140.696 277.68 145.954 276.63 147.353 275.23C148.752 273.83 155.062 271.385 155.766 273.132C156.47 274.879 165.23 280.822 159.268 281.871C153.306 282.92 145.25 283.258 143.517 282.569C141.784 281.88 140.696 277.68 140.696 277.68Z" fill="#A8A8A8"/>
<path opacity="0.2" d="M159.273 281.238C153.315 282.287 145.254 282.625 143.522 281.936C142.187 281.404 141.261 278.844 140.895 277.656L140.719 277.693C140.719 277.693 141.77 281.89 143.522 282.588C145.273 283.285 153.334 282.939 159.273 281.89C160.992 281.585 161.483 280.878 161.297 279.976C161.149 280.55 160.552 281.002 159.273 281.238Z" fill="black"/>
<path d="M227.87 310.566C227.87 310.566 243.82 307.382 248.078 303.139C252.335 298.897 271.473 291.47 273.599 296.775C275.726 302.081 302.322 320.114 284.255 323.298C266.187 326.482 241.717 327.54 236.399 325.419C231.08 323.298 227.87 310.566 227.87 310.566Z" fill="#A8A8A8"/>
<path opacity="0.2" d="M284.236 321.324C266.169 324.509 241.698 325.567 236.38 323.446C232.331 321.828 229.514 314.064 228.403 310.455L227.87 310.566C227.87 310.566 231.062 323.298 236.375 325.419C241.689 327.54 266.155 326.482 284.232 323.298C289.453 322.374 290.944 320.22 290.379 317.493C289.939 319.273 288.118 320.645 284.236 321.324Z" fill="black"/>
<path d="M335.831 220.143C335.772 222.042 335.176 223.886 334.112 225.462C333.04 223.891 332.435 222.051 332.366 220.152C332.366 217.217 333.125 214.837 334.084 214.833C335.043 214.828 335.822 217.208 335.831 220.143Z" fill="#C594FE"/>
<path d="M205.054 217.564C204.989 219.463 204.389 221.305 203.321 222.878C202.253 221.305 201.652 219.463 201.588 217.564C201.588 214.629 202.362 212.249 203.321 212.249C204.28 212.249 205.054 214.629 205.054 217.564Z" fill="#C594FE"/>
<path d="M347.584 269.934C348.652 271.507 349.253 273.35 349.317 275.249C347.525 274.603 345.953 273.466 344.781 271.968C343.049 269.592 342.275 267.212 343.049 266.653C343.822 266.094 345.856 267.563 347.584 269.934Z" fill="#C594FE"/>
<path d="M292.242 242.108C292.177 244.007 291.577 245.85 290.509 247.423C289.441 245.85 288.84 244.007 288.776 242.108C288.776 239.174 289.55 236.794 290.509 236.794C291.468 236.794 292.242 239.183 292.242 242.108Z" fill="#C594FE"/>
<path d="M259.868 224.454C259.804 226.353 259.203 228.196 258.135 229.769C257.068 228.196 256.467 226.353 256.403 224.454C256.403 221.52 257.176 219.14 258.135 219.14C259.094 219.14 259.868 221.52 259.868 224.454Z" fill="#C594FE"/>
<path d="M239.785 235.218C240.676 236.898 241.072 238.794 240.929 240.689C239.212 239.857 237.767 238.555 236.76 236.937C235.296 234.39 234.786 231.941 235.616 231.465C236.445 230.989 238.326 232.671 239.785 235.218Z" fill="#C594FE"/>
<path d="M224.78 284.039C223.347 285.292 221.588 286.115 219.707 286.414C220.127 284.562 221.063 282.865 222.408 281.52C224.553 279.514 226.827 278.451 227.481 279.145C228.134 279.838 226.925 282.033 224.78 284.039Z" fill="#C594FE"/>
<path opacity="0.1" d="M224.78 284.039C223.347 285.292 221.588 286.115 219.707 286.414C220.127 284.562 221.063 282.865 222.408 281.52C224.553 279.514 226.827 278.451 227.481 279.145C228.134 279.838 226.925 282.033 224.78 284.039Z" fill="black"/>
<path d="M256.287 281.025C254.854 282.278 253.096 283.102 251.214 283.401C251.634 281.548 252.571 279.852 253.915 278.507C256.06 276.501 258.335 275.438 258.988 276.131C259.641 276.825 258.432 279.015 256.287 281.025Z" fill="#C594FE"/>
<path opacity="0.1" d="M256.287 281.025C254.854 282.278 253.096 283.102 251.214 283.401C251.634 281.548 252.571 279.852 253.915 278.507C256.06 276.501 258.335 275.438 258.988 276.131C259.641 276.825 258.432 279.015 256.287 281.025Z" fill="black"/>
<path d="M262.328 312.886C260.895 314.139 259.137 314.962 257.255 315.261C257.674 313.403 258.612 311.701 259.961 310.353C262.106 308.347 264.38 307.284 265.034 307.978C265.687 308.671 264.478 310.875 262.328 312.886Z" fill="#C594FE"/>
<path opacity="0.1" d="M262.328 312.886C260.895 314.139 259.137 314.962 257.255 315.261C257.674 313.403 258.612 311.701 259.961 310.353C262.106 308.347 264.38 307.284 265.034 307.978C265.687 308.671 264.478 310.875 262.328 312.886Z" fill="black"/>
<path d="M309.874 310.626C309.874 310.626 317.8 309.055 319.913 306.961C322.025 304.868 331.541 301.203 332.597 303.818C333.654 306.434 346.866 315.335 337.883 316.902C328.9 318.468 316.744 318.995 314.103 317.951C311.463 316.906 309.874 310.626 309.874 310.626Z" fill="#A8A8A8"/>
<path opacity="0.2" d="M337.897 315.936C328.914 317.507 316.758 318.029 314.117 316.985C312.107 316.185 310.708 312.364 310.152 310.575L309.888 310.63C309.888 310.63 311.472 316.911 314.117 317.96C316.763 319.009 328.914 318.482 337.897 316.911C340.491 316.449 341.233 315.395 340.955 314.046C340.718 314.919 339.815 315.599 337.897 315.936Z" fill="black"/>
<path d="M278.056 210.188C304.213 210.188 325.417 189.036 325.417 162.943C325.417 136.85 304.213 115.698 278.056 115.698C251.9 115.698 230.696 136.85 230.696 162.943C230.696 189.036 251.9 210.188 278.056 210.188Z" fill="#C594FE"/>
<path d="M227.689 197.28C253.845 197.28 275.049 176.128 275.049 150.035C275.049 123.943 253.845 102.79 227.689 102.79C201.533 102.79 180.329 123.943 180.329 150.035C180.329 176.128 201.533 197.28 227.689 197.28Z" fill="#C594FE"/>
<path d="M172.245 197.742C198.401 197.742 219.605 176.59 219.605 150.497C219.605 124.405 198.401 103.252 172.245 103.252C146.088 103.252 124.884 124.405 124.884 150.497C124.884 176.59 146.088 197.742 172.245 197.742Z" fill="#C594FE"/>
<path d="M154.223 210.188C180.38 210.188 201.584 189.036 201.584 162.943C201.584 136.85 180.38 115.698 154.223 115.698C128.067 115.698 106.863 136.85 106.863 162.943C106.863 189.036 128.067 210.188 154.223 210.188Z" fill="#C594FE"/>
<path d="M123.726 214.338C149.882 214.338 171.086 193.186 171.086 167.093C171.086 141 149.882 119.848 123.726 119.848C97.5694 119.848 76.3654 141 76.3654 167.093C76.3654 193.186 97.5694 214.338 123.726 214.338Z" fill="#C594FE"/>
<path d="M111.25 177.001C137.406 177.001 158.61 155.849 158.61 129.756C158.61 103.664 137.406 82.5113 111.25 82.5113C85.0935 82.5113 63.8895 103.664 63.8895 129.756C63.8895 155.849 85.0935 177.001 111.25 177.001Z" fill="#C594FE"/>
<path d="M125.111 133.671C151.267 133.671 172.471 112.518 172.471 86.4256C172.471 60.3329 151.267 39.1806 125.111 39.1806C98.9546 39.1806 77.7506 60.3329 77.7506 86.4256C77.7506 112.518 98.9546 133.671 125.111 133.671Z" fill="#C594FE"/>
<path d="M151.448 133.671C177.605 133.671 198.809 112.518 198.809 86.4256C198.809 60.3329 177.605 39.1806 151.448 39.1806C125.292 39.1806 104.088 60.3329 104.088 86.4256C104.088 112.518 125.292 133.671 151.448 133.671Z" fill="#C594FE"/>
<path d="M166.699 114.311C192.856 114.311 214.06 93.1591 214.06 67.0664C214.06 40.9737 192.856 19.8214 166.699 19.8214C140.543 19.8214 119.339 40.9737 119.339 67.0664C119.339 93.1591 140.543 114.311 166.699 114.311Z" fill="#C594FE"/>
<path d="M205.512 135.515C231.669 135.515 252.873 114.362 252.873 88.2696C252.873 62.1769 231.669 41.0245 205.512 41.0245C179.356 41.0245 158.152 62.1769 158.152 88.2696C158.152 114.362 179.356 135.515 205.512 135.515Z" fill="#C594FE"/>
<path d="M296.077 177.001C322.234 177.001 343.438 155.849 343.438 129.756C343.438 103.664 322.234 82.5113 296.077 82.5113C269.921 82.5113 248.717 103.664 248.717 129.756C248.717 155.849 269.921 177.001 296.077 177.001Z" fill="#C594FE"/>
<path d="M268.814 153.492C294.97 153.492 316.174 132.34 316.174 106.247C316.174 80.1543 294.97 59.002 268.814 59.002C242.657 59.002 221.453 80.1543 221.453 106.247C221.453 132.34 242.657 153.492 268.814 153.492Z" fill="#C594FE"/>
<path d="M251.256 129.983C277.412 129.983 298.616 108.83 298.616 82.7377C298.616 56.645 277.412 35.4927 251.256 35.4927C225.099 35.4927 203.895 56.645 203.895 82.7377C203.895 108.83 225.099 129.983 251.256 129.983Z" fill="#C594FE"/>
<path d="M217.988 94.4901C244.145 94.4901 265.349 73.3378 265.349 47.245C265.349 21.1523 244.145 0 217.988 0C191.832 0 170.628 21.1523 170.628 47.245C170.628 73.3378 191.832 94.4901 217.988 94.4901Z" fill="#C594FE"/>
<path d="M279.905 133.671C306.061 133.671 327.265 112.518 327.265 86.4256C327.265 60.3329 306.061 39.1806 279.905 39.1806C253.748 39.1806 232.544 60.3329 232.544 86.4256C232.544 112.518 253.748 133.671 279.905 133.671Z" fill="#C594FE"/>
<path opacity="0.1" d="M325.208 93.8246C325.208 93.8246 281.1 72.9588 254.411 109.94L325.208 93.8246Z" fill="black"/>
<path opacity="0.1" d="M209.353 51.5523C209.353 51.5523 160.561 50.0826 150.98 94.6334L209.353 51.5523Z" fill="black"/>
<path opacity="0.1" d="M148.701 148.214C148.701 148.214 104.593 127.344 77.9035 164.316L148.701 148.214Z" fill="black"/>
<path d="M319.57 338.424C320.419 337.733 321.038 336.802 321.344 335.753C321.576 334.69 321.122 333.419 320.103 333.031C318.963 332.596 317.745 333.382 316.823 334.181C315.901 334.981 314.84 335.887 313.631 335.716C314.252 335.154 314.717 334.441 314.98 333.646C315.243 332.852 315.296 332.003 315.132 331.182C315.08 330.842 314.935 330.522 314.715 330.258C314.08 329.583 312.936 329.874 312.176 330.406C309.767 332.097 309.095 335.36 309.082 338.299C308.841 337.241 309.044 336.136 309.035 335.064C309.026 333.992 308.729 332.753 307.812 332.189C307.243 331.885 306.605 331.733 305.959 331.75C304.875 331.709 303.671 331.82 302.929 332.61C302.003 333.59 302.248 335.24 303.05 336.307C303.851 337.375 305.065 338.063 306.186 338.812C307.085 339.345 307.851 340.073 308.428 340.942C308.496 341.063 308.552 341.19 308.595 341.321H315.382C316.903 340.548 318.311 339.574 319.57 338.424Z" fill="#C594FE"/>
<path d="M161.654 335.919C161.654 335.919 161.191 343.156 162.117 344.358C162.117 344.358 140.844 348.217 138.185 347.011C135.525 345.804 136.735 343.877 138.185 343.152C139.635 342.426 146.89 339.773 147.853 334.713C147.853 334.713 144.712 333.266 154.862 335.175C165.013 337.084 161.654 335.919 161.654 335.919Z" fill="#DC9BA3"/>
<path opacity="0.05" d="M161.654 335.919C161.654 335.919 161.191 343.156 162.117 344.358C162.117 344.358 140.844 348.217 138.185 347.011C135.525 345.804 136.735 343.877 138.185 343.152C139.635 342.426 146.89 339.773 147.853 334.713C147.853 334.713 144.712 333.266 154.862 335.175C165.013 337.084 161.654 335.919 161.654 335.919Z" fill="black"/>
<path d="M244.575 265.738C244.575 265.738 241.916 270.077 243.607 278.521C245.298 286.964 239.257 286.959 239.257 286.959H227.175L223.066 276.33L228.866 276.792C228.866 276.792 232.734 275.826 231.043 266.902L244.575 265.738Z" fill="#FFD2D9"/>
<path d="M208.315 255.612C210.168 261.486 212.484 268.64 213.721 272.453L214.602 275.147L222.579 266.949C222.579 266.949 222.227 266.135 221.704 264.998C220.536 262.475 218.502 258.357 217.502 258.025C217.502 258.025 228.62 257.299 232.007 259.952C235.393 262.604 234.425 252.715 234.425 252.715C234.425 252.715 227.898 252.252 225.479 250.787C223.061 249.322 210.006 247.894 210.006 247.894C210.006 247.894 205.656 247.169 208.315 255.612Z" fill="#FFD2D9"/>
<path d="M135.785 326.528L137.476 338.826L141.826 338.364C141.826 338.364 142.09 338.114 142.535 337.717C143.707 336.686 146.148 334.667 148.483 333.557C149.273 333.155 150.131 332.9 151.013 332.804L146.176 325.567C145 326.007 143.794 326.364 142.567 326.635C141.293 326.934 139.989 327.089 138.68 327.097C137.686 327.112 136.699 326.918 135.785 326.528Z" fill="#FFD2D9"/>
<path d="M147.872 335.198C150.049 337.125 159.958 333.026 161.654 339.297L163.211 333.35L168.006 315.049L168.663 312.53L172.657 312.359L218.488 310.409L221.083 310.298L222.473 310.238L220.657 309.341L208.57 303.366C208.57 303.366 204.215 303.061 198.211 302.238C189.108 300.995 176.21 298.541 168.927 294.201C156.841 286.964 152.25 311.324 152.25 311.324C152.25 311.324 150.397 317.503 149.007 323.594C148.369 326.221 147.881 328.883 147.547 331.566C147.339 333.428 147.404 334.778 147.872 335.198Z" fill="#E9E9EF"/>
<path opacity="0.05" d="M147.872 335.198C150.049 337.125 159.958 333.026 161.654 339.297L163.211 333.35L168.006 315.049L168.663 312.53L172.782 312.276L217.062 309.558L219.795 309.387L220.638 309.336L221.727 309.267L208.551 303.356C208.551 303.356 204.196 303.051 198.192 302.229C189.089 300.986 176.192 298.532 168.909 294.192C156.822 286.955 152.231 311.314 152.231 311.314C152.231 311.314 150.378 317.493 148.988 323.584C148.35 326.212 147.863 328.874 147.529 331.556C147.339 333.428 147.404 334.778 147.872 335.198Z" fill="black"/>
<path opacity="0.1" d="M142.572 326.616L146.802 331.566L148.488 333.539C149.278 333.136 150.135 332.881 151.017 332.786L146.181 325.548C145.004 325.989 143.798 326.345 142.572 326.616Z" fill="black"/>
<path d="M142.799 326.034L147.529 331.579L149.808 334.246V334.972C152.588 335.614 161.293 333.784 163.211 333.363L163.586 333.28C169.145 333.52 189.696 321.463 189.696 321.463C189.696 321.463 212.179 325.322 223.052 324.356C229.125 323.815 230.83 321.625 231.15 319.79C231.29 318.884 231.165 317.956 230.788 317.119L221.06 310.302L219.772 309.378L217.715 307.932C217.715 307.932 214.138 307.123 209.598 306.125C202.501 304.563 193.045 302.534 191.132 302.39C187.991 302.15 180.014 304.803 175.418 310.108C174.629 310.936 173.739 311.661 172.768 312.266L172.643 312.35C171.35 313.205 169.761 314.11 168.01 315.039C162.159 318.113 154.357 321.417 148.993 323.584C145.324 325.077 142.799 326.034 142.799 326.034Z" fill="#E9E9EF"/>
<path opacity="0.1" d="M135.785 326.528L137.476 338.826L141.826 338.364C141.826 338.364 142.09 338.114 142.535 337.717C141.571 337.717 139.982 337.463 139.649 335.471C139.649 335.471 141.326 329.625 138.68 327.106C137.685 327.118 136.699 326.921 135.785 326.528Z" fill="black"/>
<path d="M139.153 335.438C139.153 335.438 141.571 327 136.012 326.034L126.825 329.652L116.17 330.378C116.17 330.378 113.39 334.902 117.842 339.977C119.067 341.352 120.557 342.467 122.224 343.253C123.891 344.039 125.701 344.481 127.543 344.552L139.153 345.083L142.799 337.62C142.799 337.62 139.653 338.331 139.153 335.438Z" fill="#DC9BA3"/>
<path opacity="0.1" d="M198.197 302.238C199.415 302.594 204.456 304.087 209.617 306.134C212.168 307.115 214.653 308.259 217.057 309.558C217.557 309.84 218.034 310.122 218.484 310.404C219.661 311.094 220.715 311.975 221.602 313.011C224.585 316.86 228.968 318.935 231.15 319.781C231.29 318.874 231.165 317.947 230.788 317.11L221.06 310.293L222.449 310.233L220.633 309.337L221.722 309.267L208.547 303.356C208.547 303.356 204.201 303.061 198.197 302.238Z" fill="black"/>
<path opacity="0.1" d="M213.74 272.457L214.62 275.152L222.598 266.953C222.598 266.953 222.246 266.14 221.722 265.003C220.689 267.124 215.876 270.849 213.74 272.457Z" fill="black"/>
<path d="M242.505 276.455C242.79 275.638 243 274.796 243.13 273.941L253.521 277.541C253.521 277.541 260.651 282.966 259.928 294.784C259.928 294.784 251.126 291.549 247.235 295.384L247.156 296.064C246.338 302.807 243.346 309.103 238.632 314.004C236.709 316.019 234.898 318.288 233.939 320.474C233.939 320.474 227.17 318.547 223.061 313.237C218.952 307.927 199.378 302.4 199.378 302.4C199.378 302.4 209.774 302.64 211.224 299.021C212.674 295.403 217.511 287.685 215.82 281.659C214.129 275.632 213.161 273.7 213.161 273.7C213.161 273.7 223.075 266.708 222.348 264.536L228.634 271.773L231.534 272.739C231.305 273.3 231.189 273.899 231.191 274.505C231.025 281.053 240.299 282.625 242.505 276.455Z" fill="#CEDAD5"/>
<path opacity="0.1" d="M231.405 270.114C231.331 269.213 231.209 268.317 231.039 267.429L244.575 266.223C244.575 266.223 243.649 267.032 243.232 270.045C241.643 270.969 239.79 272.254 237.807 272.254C235.496 272.257 233.247 271.505 231.405 270.114Z" fill="black"/>
<path d="M237.687 271.889C243.561 271.889 248.323 267.138 248.323 261.278C248.323 255.418 243.561 250.667 237.687 250.667C231.812 250.667 227.05 255.418 227.05 261.278C227.05 267.138 231.812 271.889 237.687 271.889Z" fill="#FFD2D9"/>
<path d="M245.544 264.051H244.094V259.952L242.644 255.612C242.644 255.612 235.389 252.234 231.988 252.959L229.348 255.358C229.348 255.358 228.62 249.572 232.975 247.4C237.33 245.228 245.062 246.194 246.998 247.862C248.935 249.53 252.094 252.446 249.658 260.405L248.949 262.364C248.949 262.364 246.025 261.398 245.544 264.051Z" fill="#292929"/>
<g opacity="0.05">
<path opacity="0.05" d="M226.753 269.62L225.961 269.356L222.31 265.155C222.382 264.956 222.39 264.74 222.334 264.536L226.753 269.62Z" fill="black"/>
<path opacity="0.05" d="M231.84 277.402C230.807 276.963 229.934 276.218 229.34 275.267C228.746 274.316 228.459 273.206 228.518 272.088C228.518 271.944 228.518 271.81 228.518 271.681L228.592 271.769L231.493 272.735C231.263 273.295 231.147 273.895 231.15 274.5C231.12 275.511 231.359 276.512 231.84 277.402Z" fill="black"/>
<path opacity="0.05" d="M203.641 302.201C209.7 304.304 217.905 307.617 220.402 310.838L220.587 311.069C213.948 306.527 199.369 302.395 199.369 302.395C200.795 302.411 202.222 302.346 203.641 302.201Z" fill="black"/>
<path opacity="0.05" d="M231.279 318.076C232.238 315.899 234.059 313.625 235.972 311.606C240.687 306.705 243.678 300.409 244.497 293.665L244.575 292.986C248.444 289.127 257.269 292.385 257.269 292.385C257.732 284.889 255.027 279.967 252.993 277.37L253.526 277.555C253.526 277.555 260.656 282.98 259.933 294.797C259.933 294.797 251.131 291.562 247.239 295.398L247.16 296.078C246.342 302.821 243.351 309.117 238.636 314.018C236.714 316.033 234.902 318.302 233.943 320.488C233.943 320.488 228.05 318.806 223.927 314.277C226.149 315.942 228.634 317.226 231.279 318.076Z" fill="black"/>
</g>
<path d="M233.939 289.857C233.939 289.857 245.521 306.494 251.585 311.319C257.649 316.144 259.321 309.147 259.321 309.147V293.716L248.666 292.51L248.55 293.975L248.421 295.648L238.507 285.018C238.507 285.018 228.593 276.094 226.661 281.4C224.729 286.705 233.939 289.857 233.939 289.857Z" fill="#FFD2D9"/>
<path opacity="0.1" d="M248.573 293.975C250.023 294.817 251.561 295.499 253.16 296.008C255.444 296.711 258.061 295.971 259.326 295.518V293.716L248.671 292.51L248.573 293.975Z" fill="black"/>
<path d="M259.446 292.149L260.067 294.733C260.067 294.733 256.287 296.489 253.146 295.528C251.028 294.811 249.005 293.84 247.123 292.635C246.66 292.394 249.055 289.742 249.055 289.742L259.446 292.149Z" fill="#CEDAD5"/>
<path opacity="0.1" d="M189.816 321.569C188.205 320.335 186.411 319.357 184.498 318.672C182.674 318.051 180.956 317.156 179.402 316.019" fill="black"/>
<path opacity="0.2" d="M116.202 330.373L116.596 330.346C116.022 331.801 115.206 335.36 118.597 339.246C119.818 340.617 121.304 341.729 122.965 342.514C124.626 343.299 126.429 343.743 128.266 343.817L139.524 344.344L139.162 345.083L127.543 344.552C125.706 344.477 123.904 344.034 122.242 343.249C120.581 342.464 119.096 341.352 117.875 339.981C113.423 334.898 116.202 330.373 116.202 330.373Z" fill="white"/>
<path opacity="0.05" d="M157.253 340.711C157.219 340.856 157.18 341 157.137 341.141C156.901 341.007 156.563 340.748 157.253 340.711Z" fill="#00FF00"/>
<path opacity="0.2" d="M138.226 346.29C140.705 347.413 159.338 344.141 161.853 343.688C161.904 343.928 162.002 344.155 162.141 344.358C162.141 344.358 140.867 348.217 138.208 347.011C136.818 346.391 136.498 345.578 136.684 344.838C136.837 345.356 137.272 345.869 138.226 346.29Z" fill="white"/>
<path opacity="0.1" d="M230.927 256.208C228.312 254.631 226.188 252.359 224.794 249.646C224.598 249.347 224.517 248.987 224.567 248.634C224.738 247.978 225.595 247.862 226.216 247.58C227.369 247.053 227.856 245.732 228.611 244.706C229.259 243.861 230.129 243.213 231.124 242.832C232.119 242.451 233.201 242.352 234.249 242.547C235.352 242.769 236.371 243.315 237.492 243.472C239.892 243.823 242.505 242.372 244.659 243.472C245.641 243.975 246.308 244.923 246.892 245.856C248.36 248.199 250.2 250.69 248.865 253.426C248.101 254.997 246.878 256.301 245.159 256.758C243.44 257.216 241.453 256.832 239.702 256.647C238.266 256.49 236.755 256.185 235.31 256.315C233.605 256.49 232.544 257.179 230.927 256.208Z" fill="black"/>
<path d="M230.927 255.723C228.312 254.146 226.188 251.873 224.794 249.161C224.598 248.862 224.517 248.502 224.567 248.149C224.738 247.492 225.595 247.377 226.216 247.095C227.369 246.568 227.856 245.246 228.611 244.22C229.259 243.376 230.129 242.727 231.124 242.346C232.119 241.965 233.201 241.867 234.249 242.062C235.352 242.284 236.371 242.829 237.492 242.986C239.892 243.338 242.505 241.887 244.659 242.986C245.641 243.49 246.308 244.438 246.892 245.371C248.36 247.714 250.2 250.205 248.865 252.941C248.101 254.512 246.878 255.816 245.159 256.273C243.44 256.731 241.453 256.347 239.702 256.162C238.266 256.005 236.755 255.7 235.31 255.829C233.605 256.005 232.544 256.698 230.927 255.723Z" fill="#292929"/>
<path d="M8.12378 314.174C8.12378 319.147 8.40175 322.433 8.40175 322.433C8.40175 322.433 15.5223 322.83 15.3231 329.416C15.1238 336.001 42.999 337.397 42.999 337.397C42.999 337.397 42.999 337.328 42.999 337.198C42.999 337.198 42.999 336.667 42.999 335.705C45.6489 336.098 48.4841 336.417 50.0732 336.265C49.9666 336.778 49.8415 337.318 49.7211 337.799C49.5914 337.928 47.0249 340.516 47.1082 343.271C47.0619 344.657 47.692 346.081 49.7304 347.264C55.6139 350.693 73.9364 348.784 73.9364 348.784C76.716 346.963 77.6426 345.415 77.5916 344.13C77.6796 342.236 75.7849 340.895 74.0476 340.031C72.7046 339.363 71.1655 339.199 69.7113 339.569C67.7494 340.003 65.7349 340.151 63.7305 340.008C63.808 339.61 63.9117 339.218 64.0409 338.834C65.9218 339.366 67.2189 339.758 67.2189 339.758C67.2189 339.758 76.9847 334.573 72.9172 326.195C72.2757 325.032 71.3102 324.08 70.1375 323.454C73.2739 318.061 76.2528 311.711 75.9563 307.441C75.4606 300.314 61.2751 301.867 55.9614 302.704L45.7184 292.68C45.7184 285.285 45.9454 276.796 45.2551 274.957C44.0321 271.763 44.4398 272.184 43.6291 270.77L43.5966 270.719C43.1334 269.97 41.8732 268.782 41.549 268.944C41.4107 267.475 41.4309 265.995 41.6092 264.531C44.1302 263.708 46.3275 262.115 47.8892 259.976C49.4509 257.837 50.2977 255.262 50.3095 252.616C50.3108 250.636 49.8341 248.685 48.9196 246.927L49.0586 246.867L47.7151 240.277C47.667 240.138 47.6476 239.99 47.6579 239.844C47.6683 239.697 47.7082 239.553 47.7754 239.422C47.9143 239.237 48.1506 239.182 48.3313 239.053C48.5357 238.855 48.6681 238.595 48.7076 238.313C48.747 238.032 48.6912 237.746 48.549 237.5C48.4241 237.255 48.2526 237.037 48.044 236.857C46.9137 235.577 44.5093 236.035 43.0314 235.845C41.0301 235.591 38.9315 235.221 37.0367 236.21C36.6287 236.463 36.2029 236.685 35.7627 236.876C35.1595 237.039 34.5328 237.099 33.9096 237.051C32.7817 237.05 31.656 237.151 30.5462 237.352C29.1008 236.83 27.4006 237.292 26.0617 238.091C24.5301 239.027 23.2827 240.361 22.4534 241.95C21.6242 243.54 21.2444 245.324 21.3549 247.112C21.4717 248.231 21.6872 249.336 21.9988 250.417L24.4773 260.052C24.6356 260.857 24.9504 261.623 25.4039 262.308C25.5135 262.452 25.6377 262.586 25.7745 262.705C26.0108 262.989 26.3167 263.207 26.6625 263.338C27.0083 263.47 27.3823 263.509 27.748 263.454C27.8424 263.431 27.9341 263.399 28.0214 263.357C27.9373 264.371 27.7399 265.372 27.433 266.342C24.5978 267.165 20.4839 270.039 15.5454 278.358C9.20783 289.015 8.15158 304.728 8.12378 314.174Z" fill="url(#paint0_linear)"/>
<path d="M32.7653 328.034H60.4875V308.226H32.7653V328.034Z" fill="#5F5D7E"/>
<path d="M53.6079 303.91C53.6079 303.91 74.2514 299.593 74.8398 308.226C75.4281 316.859 62.651 334.106 62.651 334.106L51.0692 331.754L54.4094 318.417C54.4094 318.417 41.2385 315.473 40.451 315.279C39.6634 315.085 53.6079 303.91 53.6079 303.91Z" fill="#5F5D7E"/>
<path opacity="0.1" d="M53.6079 303.91C53.6079 303.91 74.2514 299.593 74.8398 308.226C75.4281 316.859 62.651 334.106 62.651 334.106L51.0692 331.754L54.4094 318.417C54.4094 318.417 41.2385 315.473 40.451 315.279C39.6634 315.085 53.6079 303.91 53.6079 303.91Z" fill="black"/>
<path d="M64.4254 336.468C64.4254 336.468 62.4611 340.193 63.0356 341.764C63.61 343.335 49.0771 339.606 49.0771 339.606C49.0771 339.606 50.2585 335.095 50.0593 334.522C49.8601 333.949 64.4254 336.468 64.4254 336.468Z" fill="#5F5D7E"/>
<path d="M51.6437 310.971L53.0891 312.275L54.0156 313.116C54.0156 313.116 58.7364 320.764 64.8284 316.06C70.9205 311.355 60.0984 307.833 57.9349 307.653C57.5011 307.59 57.089 307.423 56.7341 307.166C56.3791 306.909 56.0917 306.571 55.8965 306.179C55.565 305.603 55.3244 304.98 55.1831 304.33L51.6437 310.971Z" fill="#FDC2CC"/>
<path opacity="0.05" d="M51.6437 310.971L53.0891 312.275L54.0156 313.116C54.0156 313.116 58.7364 320.764 64.8284 316.06C70.9205 311.355 60.0984 307.833 57.9349 307.653C57.5011 307.59 57.089 307.423 56.7341 307.166C56.3791 306.909 56.0917 306.571 55.8965 306.179C55.565 305.603 55.3244 304.98 55.1831 304.33L51.6437 310.971Z" fill="black"/>
<path opacity="0.1" d="M64.4254 336.468C64.4254 336.468 62.4611 340.193 63.0356 341.764C63.61 343.335 49.0771 339.606 49.0771 339.606C49.0771 339.606 50.2585 335.095 50.0593 334.522C49.8601 333.949 64.4254 336.468 64.4254 336.468Z" fill="black"/>
<path opacity="0.1" d="M51.6437 310.971L53.0891 312.275C53.0891 309.761 54.7615 307.45 55.9058 306.151C55.5743 305.575 55.3336 304.952 55.1923 304.303L51.6437 310.971Z" fill="black"/>
<path d="M42.9943 291.164L56.559 304.696C56.559 304.696 51.8382 308.813 52.825 313.13L42.9943 302.144V291.164Z" fill="#C4C8E2"/>
<path opacity="0.1" d="M43.0916 291.164V302.149L44.6668 303.91L49.3412 309.132L52.9223 313.134C51.9401 308.818 56.6563 304.7 56.6563 304.7L43.0916 291.164Z" fill="black"/>
<path d="M42.9943 271.745C42.9943 271.745 42.9943 275.862 39.4549 274.688C35.9155 273.515 38.6674 321.171 38.6674 321.171C38.6674 321.171 48.8918 313.522 46.9229 308.032C44.954 302.542 44.5648 298.41 44.7501 292.929C44.9354 287.448 42.9943 271.745 42.9943 271.745Z" fill="#D39999"/>
<path d="M42.7951 260.764C42.7951 260.764 39.8441 268.805 42.7951 274.887C45.7462 280.969 25.2927 271.55 25.2927 271.55C25.2927 271.55 29.8142 269.392 28.2437 258.999L42.7951 260.764Z" fill="#FDC2CC"/>
<path opacity="0.1" d="M44.5648 297.44C44.4438 299.595 44.4438 301.755 44.5648 303.91L49.2393 309.132C48.5549 307.673 47.7813 306.258 46.9229 304.894C46.1955 303.771 46.0334 299.293 45.9963 294.182L44.2822 292.472C44.4629 295.231 44.5648 297.44 44.5648 297.44Z" fill="black"/>
<path d="M41.5073 270.682C41.2895 269.651 42.9944 271.204 43.541 272.105L43.5688 272.156C44.3564 273.542 43.9626 273.136 45.1439 276.274C46.3253 279.412 44.7502 302.154 46.5338 304.927C47.7385 306.87 48.7903 308.903 49.6794 311.008L46.5338 309.83C46.5338 309.83 45.3524 306.299 44.5695 305.513C43.7866 304.728 44.1757 297.472 44.1757 297.472C44.1757 297.472 43.5874 284.92 42.9944 282.175C42.5265 279.966 41.9705 272.849 41.5073 270.682Z" fill="#C4C8E2"/>
<path opacity="0.1" d="M41.5073 270.682C41.2895 269.651 42.9944 271.204 43.541 272.105L43.5688 272.156C44.3564 273.542 43.9626 273.136 45.1439 276.274C46.3253 279.412 44.7502 302.154 46.5338 304.927C47.7385 306.87 48.7903 308.903 49.6794 311.008L46.5338 309.83C46.5338 309.83 45.3524 306.299 44.5695 305.513C43.7866 304.728 44.1757 297.472 44.1757 297.472C44.1757 297.472 43.5874 284.92 42.9944 282.175C42.5265 279.966 41.9705 272.849 41.5073 270.682Z" fill="black"/>
<path d="M36.8976 319.6C36.8976 319.6 67.9602 318.421 71.8934 326.661C75.8266 334.901 66.3897 340.003 66.3897 340.003C66.3897 340.003 53.2188 335.886 50.2677 336.473C47.3167 337.06 36.8976 334.901 36.8976 334.901V319.6Z" fill="#5F5D7E"/>
<path d="M54.2009 314.502C54.2009 314.502 61.2797 310.579 65.2129 313.116C69.1461 315.653 68.7523 322.53 63.2486 322.724C57.745 322.918 54.7939 319.586 54.7939 319.586L54.2009 314.502Z" fill="#FDC2CC"/>
<path d="M31.9823 268.02C31.9823 268.02 25.691 263.703 16.4487 279.573C7.20643 295.443 9.56912 322.719 9.56912 322.719C9.56912 322.719 16.4487 323.112 16.2542 329.582C16.0596 336.052 42.9943 337.438 42.9943 337.438C42.9943 337.438 42.6005 273.108 39.8487 271.352C37.0968 269.595 31.9823 268.02 31.9823 268.02Z" fill="#C4C8E2"/>
<path opacity="0.1" d="M31.9545 279.721C33.064 280.519 33.9671 281.569 34.589 282.784C35.211 283.999 35.5339 285.344 35.531 286.709C35.5634 292.583 35.707 305.241 36.3046 307.635C37.0922 310.773 48.8872 314.89 54.9838 314.696C54.9838 314.696 57.9349 320.187 54.3955 321.365C50.8561 322.543 29.2305 321.365 29.2305 321.365C29.2305 321.365 20.7757 311.757 20.5812 303.341C20.3866 294.926 19.1913 285.493 20.5812 283.728C21.7162 282.235 26.4647 275.858 31.9545 279.721Z" fill="black"/>
<path d="M32.3483 278.936C33.4633 279.732 34.3717 280.782 34.9978 281.999C35.6239 283.216 35.9496 284.565 35.9479 285.932C35.9803 291.806 36.124 304.464 36.7216 306.858C37.5092 309.996 49.3041 314.114 55.4008 313.92C55.4008 313.92 58.3518 319.41 54.8124 320.589C51.273 321.767 29.6474 320.589 29.6474 320.589C29.6474 320.589 21.1927 310.981 20.9981 302.565C20.8035 294.149 19.6083 284.717 20.9981 282.952C22.1099 281.468 26.8585 275.072 32.3483 278.936Z" fill="#C4C8E2"/>
<path d="M72.8629 340.239C75.6842 341.625 78.9549 344.481 72.7563 348.821C72.7563 348.821 55.0639 350.78 49.361 347.25C43.6581 343.719 49.361 338.03 49.361 338.03C49.361 338.03 62.4114 341.491 68.6749 339.8C70.0778 339.432 71.5674 339.588 72.8629 340.239Z" fill="#4C4C56"/>
<path opacity="0.1" d="M32.8672 293.613C32.8672 293.613 33.8493 305.971 40.3398 308.716L32.8672 293.613Z" fill="black"/>
<path opacity="0.1" d="M42.6006 262.137C42.0268 263.837 41.637 265.594 41.4377 267.377C40.1962 267.793 38.3801 266.749 36.995 266.749C33.3907 266.749 32.3622 262.728 30.1153 260.279C30.1153 259.188 28.2622 261.734 28.0491 260.376L42.6006 262.137Z" fill="black"/>
<path d="M25.2927 254.289C25.2914 255.315 25.4174 256.336 25.6679 257.33L25.7096 257.488C26.521 260.536 28.4646 263.162 31.1459 264.832C33.8272 266.503 37.0453 267.094 40.1472 266.484C43.249 265.874 46.0021 264.11 47.8477 261.55C49.6933 258.989 50.493 255.824 50.0847 252.697C49.6764 249.569 48.0906 246.714 45.6491 244.711C43.2076 242.707 40.0934 241.705 36.9385 241.908C33.7836 242.112 30.8244 243.505 28.6616 245.805C26.4988 248.105 25.2943 251.14 25.2927 254.294V254.289Z" fill="#FDC2CC"/>
<path opacity="0.1" d="M16.4534 279.786C17.7377 277.529 19.2082 275.384 20.8499 273.371C19.5295 275.102 18.324 276.918 17.241 278.806C7.9987 294.695 10.3614 321.952 10.3614 321.952C10.3614 321.952 17.241 322.345 17.0464 328.815C16.8704 334.624 38.5469 336.325 42.9897 336.611C42.9897 337.277 42.9897 337.637 42.9897 337.637C42.9897 337.637 16.055 336.251 16.2496 329.781C16.4442 323.311 9.56456 322.918 9.56456 322.918C9.56456 322.918 7.22504 295.674 16.4534 279.786Z" fill="black"/>
<path d="M49.978 246.104C50.309 245.65 50.5632 245.144 50.7308 244.609C51.8575 241.118 49.0603 237.183 44.9241 236.465C42.8499 236.097 40.6089 236.454 38.5341 236.048C36.8648 235.724 35.4031 234.929 33.8427 234.354C30.9119 233.288 27.7601 232.959 24.6685 233.398C21.6451 233.829 18.4584 235.24 17.4628 237.703C16.0071 241.289 19.8061 245.204 18.133 248.723C16.9028 251.308 13.3677 252.409 10.4855 253.782C7.49892 255.178 4.86179 257.217 2.76562 259.752C0.6671 262.335 -0.668327 265.713 0.820592 268.479C1.68896 270.102 3.38303 271.263 4.77311 272.594C7.08799 274.775 8.61322 277.655 9.11231 280.787C9.61139 283.92 9.05644 287.13 7.5335 289.92C7.04453 290.804 6.45617 291.679 6.31761 292.638C5.98499 294.925 8.52425 296.919 11.2297 297.068C13.9351 297.218 16.5897 295.937 18.5034 294.26C20.274 292.748 21.6219 290.807 22.4164 288.625C24.322 283.185 21.9744 277.55 21.135 272.001C21.0355 271.355 20.9903 270.645 21.3953 270.086C22.0248 269.247 23.3683 269.124 24.5045 268.902C27.4445 268.325 30.0011 266.381 31.0155 263.968C32.9521 259.326 29.4983 253.496 33.3482 249.749C38.1935 245.033 46.5059 250.785 49.978 246.104Z" fill="#3F3D56"/>
<path opacity="0.1" d="M44.9221 236.255L44.8887 236.258C46.6454 237.904 47.4944 240.288 46.7911 242.5C46.6246 243.038 46.3717 243.544 46.0423 244C42.5865 248.693 34.3008 242.916 29.4771 247.644C25.6444 251.4 29.0896 257.251 27.1637 261.906C26.1649 264.325 23.6092 266.275 20.6806 266.851C19.5488 267.073 18.2104 267.196 17.5838 268.037C17.1674 268.599 17.2263 269.309 17.3259 269.958C18.1664 275.525 20.5094 281.179 18.615 286.635C17.825 288.823 16.4836 290.769 14.7207 292.285C12.8147 293.959 10.1757 295.255 7.47687 295.103L7.28886 295.083C7.80937 295.668 8.44109 296.143 9.14715 296.481C9.85321 296.819 10.6195 297.013 11.4012 297.052C14.0996 297.2 16.7219 295.906 18.6443 294.227C20.4071 292.711 21.7486 290.765 22.5385 288.577C24.433 283.12 22.09 277.467 21.2495 271.899C21.1499 271.251 21.1043 270.539 21.5074 269.978C22.134 269.137 23.4723 269.015 24.6041 268.793C27.5327 268.217 30.0784 266.268 31.0872 263.847C33.0131 259.192 29.5679 253.342 33.4006 249.585C38.2244 244.858 46.5101 250.635 49.9658 245.942C50.2952 245.486 50.5482 244.979 50.7147 244.442C51.8335 240.931 49.0467 237.008 44.9221 236.255Z" fill="black"/>
</g>
<defs>
<linearGradient id="paint0_linear" x1="77.587" y1="292.439" x2="8.12378" y2="292.439" gradientUnits="userSpaceOnUse">
<stop stop-color="#808080" stop-opacity="0.25"/>
<stop offset="0.54" stop-color="#808080" stop-opacity="0.12"/>
<stop offset="1" stop-color="#808080" stop-opacity="0.1"/>
</linearGradient>
<clipPath id="clip0">
<rect width="350" height="350" rx="34" fill="white"/>
</clipPath>
</defs>
</svg>
