<svg width="350" height="350" viewBox="0 0 350 350" fill="none" xmlns="http://www.w3.org/2000/svg">
<path d="M86.8459 96.9957C86.8459 96.9957 49.4126 109.91 42.2336 121.83C35.0546 133.751 86.8459 96.9957 86.8459 96.9957Z" fill="#C594FE"/>
<path d="M22.1681 138.331C21.9076 138.351 21.6461 138.314 21.4011 138.223C21.1561 138.133 20.9334 137.991 20.748 137.807C19.5834 136.756 20.5352 134.769 21.352 133.366C32.3036 114.562 87.3691 94.7464 89.7073 93.9123L94.7431 92.116L90.4311 95.28C90.2717 95.3973 74.2523 107.142 57.8531 118.207C32.3578 135.41 24.7885 138.331 22.1681 138.331ZM84.8134 97.4269C70.3544 103.033 31.3885 119.237 22.7019 134.154C21.545 136.14 21.7898 136.639 21.7928 136.643C22.027 136.896 24.986 138.484 56.79 117.038C67.8766 109.562 78.8144 101.755 84.8134 97.4269V97.4269Z" fill="#3F3D56"/>
<path d="M86.0346 84.097C86.0346 84.097 51.5383 80.5453 41.0735 86.6148C30.6087 92.6844 86.0346 84.097 86.0346 84.097Z" fill="#C594FE"/>
<path d="M39.0271 89.9022C26.9521 89.9022 26.1231 87.9635 25.7433 87.077C24.9845 85.3032 27.0962 83.633 27.7902 83.0841C42.7633 71.2431 88.2423 83.2094 90.171 83.7243L93.8698 84.7123L90.0802 85.2543C89.9277 85.2761 74.69 87.4471 59.3128 88.806C50.3448 89.5986 43.8051 89.9022 39.0271 89.9022ZM49.6088 79.4679C41.1038 79.4679 33.3232 80.7019 28.7588 84.3117C27.3815 85.4006 27.0398 86.1355 27.1794 86.4602C27.5294 87.2775 30.8706 89.7495 59.1755 87.2477C69.7229 86.3154 80.2039 85.0004 85.7705 84.2628C78.6382 82.6185 63.1984 79.4679 49.6088 79.4679Z" fill="#3F3D56"/>
<path d="M95.9067 78.0115C95.9067 78.0115 78.5552 36.2805 82.7593 32.1499C86.9634 28.0192 95.9067 78.0115 95.9067 78.0115Z" fill="#C594FE"/>
<path d="M96.8663 81.6824L94.7087 76.1606C94.6561 76.0254 89.3771 62.4805 85.0269 48.5356C76.0666 19.8164 79.7395 17.364 80.946 16.5581C81.2438 16.3443 81.5937 16.2151 81.9587 16.1843C82.3238 16.1534 82.6903 16.222 83.0197 16.3828C89.7874 19.5414 95.5751 70.0414 96.2127 75.7893L96.8663 81.6824ZM82.1342 17.7425C82.0176 17.7482 81.9054 17.7891 81.8124 17.8597C77.5004 20.7392 86.2418 49.0883 93.9263 69.7221C91.2906 48.4463 86.4371 19.7038 82.36 17.8005C82.2899 17.7647 82.2128 17.7448 82.1342 17.7425Z" fill="#3F3D56"/>
<path d="M102.465 87.1883C102.465 87.1883 111.778 45.0075 121.535 45.0075C131.291 45.0075 102.465 87.1883 102.465 87.1883Z" fill="#C594FE"/>
<path d="M100.008 90.0989L100.929 86.6259C101.605 84.0791 117.686 24.2489 135.265 24.2489C137.675 24.2489 138.714 25.3814 139.163 26.3313C143.85 36.2744 106.555 82.1281 102.287 87.3237L100.008 90.0989ZM135.265 25.8134C121.234 25.8134 107.286 70.2328 103.462 83.3977C116.046 67.7368 141.13 34.1684 137.75 26.9993C137.611 26.706 137.191 25.8134 135.265 25.8134Z" fill="#3F3D56"/>
<path d="M107.931 87.609C107.931 87.609 139.95 67.3426 205.55 73.529C271.15 79.7154 107.931 87.609 107.931 87.609Z" fill="#C594FE"/>
<path d="M105.747 88.4543L107.424 87.0151C107.763 86.7237 115.926 79.8128 132.281 74.2551C147.331 69.1397 172.419 64.3211 206.469 70.4123C220.854 72.9855 222.722 74.9029 222.597 76.5914C222.474 78.2598 222.184 82.1671 164.706 85.7894C136.618 87.5594 108.237 88.3828 107.954 88.3909L105.747 88.4543ZM175.566 69.1317C138.581 69.1317 116.715 82.2946 110.375 86.7508C117.88 86.5102 141.348 85.694 164.611 84.2277C218.021 80.8616 220.987 77.1796 221.039 76.4757C221.045 76.4005 221.005 74.6015 206.194 71.9523C196.088 70.1089 185.839 69.165 175.566 69.1317Z" fill="#3F3D56"/>
<path d="M128.236 89.9856C128.236 89.9856 184.322 89.2358 187.473 95.2343C190.624 101.233 128.236 89.9856 128.236 89.9856Z" fill="#C594FE"/>
<path d="M194.655 105.314C176.753 105.314 133.721 92.4379 128.01 90.7043L123.329 89.2838L128.219 89.1738C135.393 89.013 198.426 87.9627 202.391 100.673C202.861 102.179 202.316 103.145 201.776 103.69C200.647 104.831 198.122 105.314 194.655 105.314ZM133.352 90.6664C159.66 98.3894 196.189 107.115 200.667 102.589C200.91 102.344 201.155 101.958 200.9 101.14C198.083 92.1098 155.093 90.5186 133.352 90.6664Z" fill="#3F3D56"/>
<path d="M117.303 96.2135C117.303 96.2135 151.179 111.897 144.56 116.722C137.94 121.548 117.303 96.2135 117.303 96.2135Z" fill="#C594FE"/>
<path d="M165.667 135.697C149.28 135.697 115.914 96.2177 114.362 94.3702L112.166 91.7551L115.28 93.153C117.552 94.1732 170.938 118.277 172.106 130.35C172.261 131.951 171.559 133.351 170.077 134.399C168.78 135.286 167.237 135.74 165.667 135.697ZM117.857 96.05C130.742 110.856 159.408 140.03 169.176 133.121C170.216 132.386 170.653 131.553 170.552 130.501C169.711 121.82 134.825 103.921 117.857 96.05Z" fill="#3F3D56"/>
<path d="M173.531 114.987C173.531 114.987 201.646 126.72 195.398 134.542C189.15 142.365 173.531 114.987 173.531 114.987Z" fill="#C594FE"/>
<path d="M121.208 105.6C121.208 105.6 179.779 169.742 174.312 173.654C168.846 177.565 121.208 105.6 121.208 105.6Z" fill="#C594FE"/>
<path d="M110.274 100.907C110.274 100.907 134.934 142.045 129.902 146.044C124.869 150.044 110.274 100.907 110.274 100.907Z" fill="#C594FE"/>
<path d="M138.187 161.454C137.879 161.452 137.574 161.401 137.282 161.302C128.242 158.328 110.02 104.893 107.973 98.8099L106.152 93.4L109.358 98.1201C109.454 98.261 119.039 112.392 127.545 127.011C143.269 154.036 141.965 159.35 139.617 160.997C139.2 161.295 138.699 161.455 138.187 161.454ZM111.439 104.072C118.085 122.97 131.466 157.742 137.769 159.816C137.924 159.882 138.092 159.906 138.259 159.889C138.425 159.871 138.585 159.811 138.722 159.715C140.012 158.81 141.375 153.89 126.198 127.804C120.814 118.55 114.994 109.489 111.439 104.072H111.439Z" fill="#3F3D56"/>
<path d="M99.8418 99.3424C99.8418 99.3424 77.6477 164.938 91.2668 164.262C104.886 163.585 99.8418 99.3424 99.8418 99.3424Z" fill="#C594FE"/>
<path d="M85.7423 175.224C83.3522 175.224 81.5142 174.288 80.2757 172.44C71.4892 159.323 97.5176 101.476 98.6295 99.0192L99.817 96.3979L100.117 99.2606C100.364 101.603 106.001 156.806 93.2315 171.553C91.2128 173.884 88.8112 175.116 86.0939 175.217C85.9757 175.222 85.8582 175.224 85.7423 175.224ZM98.8385 102.422C93.6929 114.273 74.3064 160.721 81.5729 171.568C82.5629 173.047 84.0226 173.732 86.036 173.654C88.3361 173.569 90.3037 172.546 92.0517 170.528C102.726 158.2 99.8421 114.333 98.8385 102.422Z" fill="#3F3D56"/>
<path d="M92.1761 102.603C92.1761 102.603 54.9211 145.283 58.3306 149.778C61.7401 154.273 92.1761 102.603 92.1761 102.603Z" fill="#C594FE"/>
<path d="M47.1226 165.337C46.6293 165.345 46.1478 165.185 45.7567 164.884C45.4912 164.668 45.2748 164.397 45.122 164.091C44.9692 163.784 44.8834 163.448 44.8705 163.106C43.9347 152.503 93.5259 97.2542 95.6369 94.9076L100.629 89.3594L96.893 95.8231C95.3005 98.5777 57.7829 163.308 47.6801 165.281C47.4965 165.317 47.3098 165.336 47.1226 165.337ZM91.5293 101.884C75.0988 120.575 45.7765 155.607 46.4263 162.968C46.4206 163.096 46.4437 163.224 46.4938 163.342C46.544 163.46 46.62 163.565 46.7161 163.65C46.8123 163.716 46.9222 163.758 47.0375 163.775C47.1528 163.792 47.2704 163.781 47.3811 163.745C54.3632 162.382 78.7534 123.42 91.5293 101.884H91.5293Z" fill="#3F3D56"/>
<path d="M80.9942 73.8634C80.9942 73.8634 48.5141 35.4345 18.4791 39.1588C-11.556 42.8831 80.9942 73.8634 80.9942 73.8634Z" fill="#C594FE"/>
<path d="M85.3236 75.6591L82.7672 75.074C82.5621 75.027 62.0339 70.3111 41.7383 64.2951C0.178622 51.9762 0.0443956 46.3116 0.000945372 44.4504C-0.0524407 42.2045 2.23017 40.4675 6.97917 39.1398C24.6032 34.2123 44.5029 43.9183 58.0887 52.9303C67.212 59.0381 75.7233 66.0166 83.5032 73.7681L85.3236 75.6591ZM17.0651 39.3671C13.7998 39.3505 10.5475 39.7812 7.39859 40.647C3.60213 41.708 1.53 43.0456 1.56205 44.4133C1.73975 51.9235 47.8296 65.3156 80.4236 72.9263C72.7186 65.523 43.6091 39.3671 17.0652 39.3671H17.0651Z" fill="#3F3D56"/>
<path d="M55.6078 71.1823C55.6078 71.1823 12.6556 68.0534 15.7794 75.8757C18.9032 83.6979 55.6078 71.1823 55.6078 71.1823Z" fill="#C594FE"/>
<path d="M66.5412 42.2401C66.5412 42.2401 64.1983 31.289 60.2936 33.6356C56.3888 35.9823 66.5412 42.2401 66.5412 42.2401Z" fill="#C594FE"/>
<path d="M106.109 49.9887C106.109 49.9887 116.825 4.88461 111.968 4.71914C107.111 4.55367 106.109 49.9887 106.109 49.9887Z" fill="#C594FE"/>
<path d="M104.114 59.9749L104.027 53.9849C103.999 52.061 103.403 6.79518 109.278 0.82233C109.503 0.571022 109.776 0.368412 110.082 0.226985C110.388 0.0855586 110.719 0.00830927 111.055 0C111.382 0.00133556 111.704 0.0797372 111.994 0.228846C112.285 0.377954 112.537 0.593576 112.729 0.858231C117.25 6.65845 106.775 49.3179 105.565 54.1632L104.114 59.9749ZM111.055 1.56445C110.978 1.56445 110.741 1.56445 110.391 1.92042C106.511 5.86515 105.61 32.1074 105.557 47.5407C109.859 29.1508 114.242 5.34188 111.498 1.82111C111.452 1.74424 111.387 1.68035 111.31 1.63544C111.232 1.59054 111.145 1.56611 111.055 1.56445Z" fill="#3F3D56"/>
<path d="M155.57 56.3201C155.57 56.3201 160.255 44.5867 164.941 47.7156C169.627 50.8445 155.57 56.3201 155.57 56.3201Z" fill="#C594FE"/>
<path d="M111.055 160.356C111.055 160.356 104.808 206.507 116.522 205.725C128.236 204.943 111.055 160.356 111.055 160.356Z" fill="#C594FE"/>
<path d="M143.736 197.86C143.736 197.86 137.75 187.868 137.75 180.873C137.75 180.873 127.275 169.881 130.268 166.883C133.261 163.885 139.745 175.377 139.745 175.377C139.745 175.377 127.773 161.886 131.265 159.888C134.757 157.889 146.23 172.878 146.23 172.878L150.221 170.88C150.221 170.88 141.744 149.94 147.726 149.395C150.47 149.146 156.705 169.381 156.705 169.381L163.19 185.869C163.19 185.869 165.684 191.865 164.686 195.362C164.079 197.501 163.579 199.668 163.19 201.857L143.736 197.86Z" fill="#FFB9B9"/>
<path opacity="0.1" d="M159.199 200.359C159.199 200.359 162.691 194.862 161.427 186.47C160.164 178.078 153.213 173.378 153.213 173.378C153.213 173.378 148.724 176.876 153.213 185.869C153.213 185.869 147.726 190.865 152.216 198.86" fill="black"/>
<path d="M161.195 200.359C161.195 200.359 164.686 194.862 163.423 186.47C162.159 178.078 155.209 173.378 155.209 173.378C155.209 173.378 150.719 176.876 155.209 185.869C155.209 185.869 149.722 190.865 154.211 198.86" fill="#FFB9B9"/>
<path opacity="0.1" d="M147.477 172.629L144.733 168.382C144.733 168.382 131.764 166.383 133.261 170.88C134.757 175.377 140.743 173.378 140.743 173.378L144.235 176.876L147.477 172.629Z" fill="black"/>
<path d="M149.722 172.379L145.731 166.883C145.731 166.883 132.762 164.884 134.258 169.381C135.755 173.878 141.741 171.879 141.741 171.879L145.232 175.377L149.722 172.379Z" fill="#FFB9B9"/>
<path d="M242.254 238.081L239.76 258.066L278.668 260.565V236.582L242.254 238.081Z" fill="#FFB9B9"/>
<path d="M350 350L318.446 286.79C316.561 280.538 310.675 270.355 292.386 263.812L278.668 252.189L268.442 251.821L227.538 245.826C227.538 245.826 196.112 243.827 175.661 256.318L170.174 253.82C170.174 253.82 161.195 221.843 165.185 198.86L142.239 196.861C142.239 196.861 129.769 251.322 135.755 267.81C141.741 284.298 163.689 296.289 163.689 296.289L183.143 315.775L190.625 349.75H307.35L309.208 340.836L318.325 349.75L350 350Z" fill="#CFCCE0"/>
<path d="M305.883 236.585C269.132 246.525 233.012 247.227 197.655 236.738C193.498 235.505 190.657 231.85 190.657 227.701V124.248C190.657 119.619 194.173 115.67 198.966 114.918C232.319 109.678 267.653 110.084 304.609 115.113C309.492 115.778 313.117 119.772 313.117 124.473V227.482C313.117 231.718 310.158 235.428 305.883 236.585Z" fill="#CFCCE0"/>
<path d="M230.092 165.792C230.092 165.792 221.639 153.418 226.841 150.162C232.043 146.905 239.845 156.023 239.845 156.023C239.845 156.023 249.598 147.556 254.8 150.813C260.002 154.069 249.598 165.792 249.598 165.792C249.598 165.792 257.401 167.746 258.051 172.956C258.701 178.166 261.302 191.843 250.249 192.494C244.327 192.843 241.018 191.136 239.222 189.476C238.568 188.889 237.724 188.559 236.846 188.549C235.968 188.539 235.116 188.848 234.449 189.419C230.7 192.582 223.95 196.228 219.038 187.284C217.088 173.607 230.092 165.792 230.092 165.792Z" fill="#3F3D56"/>
<path d="M292.513 167.095C292.513 167.095 300.965 154.72 295.764 151.464C290.562 148.208 282.759 157.326 282.759 157.326C282.759 157.326 273.006 148.859 267.804 152.115C262.603 155.372 273.006 167.095 273.006 167.095C273.006 167.095 265.204 169.048 264.553 174.259C263.903 179.469 261.302 193.146 272.356 193.797C278.278 194.146 281.587 192.439 283.383 190.778C284.037 190.191 284.881 189.862 285.759 189.852C286.637 189.841 287.489 190.15 288.156 190.722C291.904 193.885 298.655 197.531 303.566 188.587C305.517 174.91 292.513 167.095 292.513 167.095Z" fill="#3F3D56"/>
<path d="M219.83 200.914C219.83 200.914 232.027 210.75 258.037 210.13C284.046 209.51 292.457 208.446 298.016 202.306C303.576 196.165 305.224 203.257 303.497 207.906C301.771 212.555 299.554 220.488 286.597 221.774C278.067 222.62 259.63 222.821 248.028 222.859C239.009 222.934 230.092 220.947 221.956 217.05C221.849 216.998 221.741 216.945 221.635 216.893C219.167 215.672 217.089 213.784 215.635 211.442C214.182 209.1 213.411 206.398 213.411 203.641C213.412 201.45 213.797 200.267 215.22 199.835C217.786 199.058 219.83 200.914 219.83 200.914Z" fill="#3F3D56"/>
<path d="M257.141 245.978C237.262 245.989 217.496 242.985 198.514 237.07C196.166 236.35 194.111 234.892 192.653 232.913C191.195 230.934 190.41 228.538 190.416 226.078V104.882C190.408 102.153 191.372 99.5113 193.134 97.4309C194.897 95.3504 197.343 93.9681 200.032 93.5323C235.854 87.6186 275.519 87.6953 317.925 93.7602C320.654 94.164 323.149 95.5348 324.956 97.6238C326.763 99.7128 327.762 102.381 327.772 105.145V225.822C327.762 228.326 326.94 230.76 325.431 232.757C323.921 234.754 321.804 236.206 319.4 236.894C298.634 242.796 278.105 245.852 258.382 245.975C257.97 245.977 257.554 245.978 257.141 245.978ZM255.759 90.0028C237.142 89.9405 218.55 91.4013 200.17 94.3704C197.68 94.7739 195.414 96.0542 193.782 97.981C192.149 99.9079 191.256 102.355 191.263 104.882V226.078C191.259 228.356 191.986 230.576 193.336 232.409C194.687 234.242 196.591 235.592 198.766 236.259C236.664 248.076 277.173 248.014 319.168 236.077L319.284 236.485L319.168 236.077C321.395 235.44 323.356 234.095 324.755 232.246C326.153 230.396 326.915 228.142 326.925 225.822V105.145C326.915 102.586 325.99 100.114 324.317 98.1792C322.643 96.2445 320.333 94.9748 317.805 94.6008C297.257 91.6023 276.523 90.0658 255.759 90.0028V90.0028Z" fill="#3F3D56"/>
<path d="M253.154 107.973C243.814 107.973 235.82 107.553 229.276 106.984C208.691 105.196 197.599 101.587 197.49 101.55L197.755 100.744C197.864 100.78 208.889 104.364 229.389 106.141C248.308 107.783 279.399 108.175 320.065 100.729L320.218 101.565C293.501 106.456 270.9 107.973 253.154 107.973Z" fill="#3F3D56"/>
</svg>
