<svg width="501" height="382" viewBox="0 0 501 382" fill="none" xmlns="http://www.w3.org/2000/svg">
<g clip-path="url(#clip0)">
<path d="M125.168 218.758C125.124 218.109 124.953 217.474 124.664 216.891C124.374 216.307 123.973 215.787 123.482 215.359L115.597 208.489C114.671 207.681 113.477 207.245 112.248 207.268C111.018 207.29 109.841 207.768 108.945 208.609C108.824 208.72 108.711 208.838 108.605 208.963L88.0174 232.562L85.7645 235.14L51.3199 274.624C50.4584 275.617 50.0254 276.911 50.1158 278.222C50.2061 279.534 50.8123 280.756 51.8018 281.622L59.6797 288.491C60.6717 289.355 61.9655 289.789 63.2775 289.7C64.5895 289.611 65.8127 289.006 66.6791 288.017L85.7645 266.139L102.966 246.415L123.957 222.356C124.386 221.866 124.714 221.296 124.922 220.678C125.129 220.061 125.213 219.408 125.168 218.758V218.758Z" fill="#C594FE"/>
<path d="M250.038 174.246L245.249 164.954C244.644 163.788 243.601 162.909 242.349 162.509C241.097 162.11 239.738 162.222 238.568 162.822L199.555 182.929L175.028 195.571L161.107 202.745C160.743 202.932 160.405 203.165 160.101 203.439C159.426 204.026 158.926 204.789 158.656 205.642C158.456 206.262 158.381 206.916 158.435 207.565C158.49 208.214 158.673 208.846 158.975 209.424L160.845 213.057L163.764 218.716C164.062 219.295 164.471 219.81 164.968 220.23C165.465 220.651 166.041 220.969 166.662 221.166C167.155 221.32 167.668 221.399 168.185 221.4C168.972 221.401 169.747 221.211 170.445 220.848L186.98 212.328L208.601 201.18L247.906 180.924C249.072 180.319 249.951 179.276 250.351 178.025C250.75 176.773 250.638 175.415 250.038 174.246V174.246Z" fill="#C594FE"/>
<path d="M208.814 201.626L208.601 201.18L200.227 183.934C199.635 182.762 198.604 181.871 197.358 181.455C196.736 181.248 196.078 181.167 195.423 181.216C194.769 181.266 194.131 181.446 193.547 181.746L173.115 194.126L159.513 202.37C159.41 202.422 159.315 202.489 159.23 202.568C158.451 203.269 158.033 205.068 157.693 206.541C157.572 207.051 157.473 207.497 157.374 207.788C157.339 207.908 157.296 208.036 157.268 208.163C156.984 209.308 157.12 210.516 157.65 211.57L159.322 214.906L162.34 220.911C162.755 221.735 163.391 222.427 164.176 222.911C164.962 223.395 165.866 223.652 166.789 223.652C167.548 223.651 168.295 223.472 168.971 223.128L188 215.621L206.603 208.276C207.777 207.686 208.669 206.654 209.083 205.408C209.497 204.161 209.401 202.801 208.814 201.626H208.814Z" fill="#2F2E41"/>
<path d="M141.322 174.966C162.262 174.966 179.237 157.996 179.237 137.062C179.237 116.128 162.262 99.1573 141.322 99.1573C120.382 99.1573 103.407 116.128 103.407 137.062C103.407 157.996 120.382 174.966 141.322 174.966Z" fill="#C594FE"/>
<path d="M142.419 288.3C142.382 287.337 142.064 286.406 141.504 285.622C140.943 284.838 140.165 284.235 139.266 283.888C138.696 283.662 138.087 283.547 137.474 283.548H127.017C125.702 283.549 124.442 284.072 123.512 285.002C122.582 285.931 122.059 287.191 122.058 288.506V377.042C122.059 378.357 122.582 379.617 123.512 380.546C124.442 381.476 125.702 381.999 127.017 382H137.474C138.789 381.999 140.049 381.476 140.979 380.546C141.909 379.617 142.432 378.357 142.433 377.042V288.506C142.436 288.437 142.431 288.368 142.419 288.3V288.3Z" fill="#C594FE"/>
<path d="M189.927 327.834C189.784 327.496 189.603 327.176 189.388 326.878L171.564 301.948L156.878 281.416H131.827L133.599 283.888L136.751 288.3L146.52 301.955L167.455 331.226L172.818 338.72C173.582 339.789 174.74 340.511 176.036 340.727C177.333 340.943 178.662 340.637 179.732 339.874L188.241 333.79C189.155 333.135 189.82 332.189 190.126 331.107C190.433 330.025 190.362 328.871 189.927 327.834ZM138.706 256.005C137.94 254.936 136.781 254.215 135.483 254C134.185 253.785 132.855 254.093 131.785 254.857L123.277 260.934C122.208 261.7 121.487 262.859 121.272 264.156C121.057 265.454 121.365 266.783 122.129 267.853L125.246 272.209H150.296L138.706 256.005Z" fill="#C594FE"/>
<path d="M190.09 328.075C190.039 327.992 189.985 327.912 189.927 327.834C189.269 326.941 188.403 326.221 187.405 325.738L178.046 321.085C175.595 319.866 172.96 320.164 172.173 321.75L167.455 331.226L148.051 370.194C147.257 371.78 148.61 374.061 151.055 375.279L160.413 379.939C161.342 380.413 162.367 380.67 163.41 380.69C164.728 380.69 165.825 380.201 166.286 379.273L190.409 330.83C190.599 330.382 190.669 329.893 190.613 329.41C190.557 328.927 190.377 328.467 190.09 328.075V328.075Z" fill="#C594FE"/>
<path d="M134.045 207.108L132.472 205.564L131.601 204.693L126.599 199.77C125.758 198.944 124.651 198.442 123.475 198.354C123.34 198.347 123.213 198.34 123.078 198.34C122.781 198.347 122.327 198.304 121.796 198.262C120.117 198.12 118.02 197.936 117.29 198.687L107.606 207.058L87.1388 224.743C86.396 225.492 85.9142 226.461 85.7644 227.505C85.7241 227.756 85.7052 228.009 85.7077 228.263C85.7088 228.488 85.7277 228.713 85.7644 228.936C85.915 230.009 86.4154 231.002 87.1882 231.762L88.0174 232.562L101.379 245.367C102.316 246.287 103.579 246.799 104.892 246.79C105.466 246.79 106.035 246.687 106.571 246.486C107.264 246.23 107.891 245.824 108.406 245.296L131.693 217.03L133.216 215.182L134.095 214.119C135.017 213.182 135.529 211.918 135.52 210.603C135.511 209.289 134.98 208.032 134.045 207.108V207.108Z" fill="#2F2E41"/>
<path d="M136.275 151.11L136.235 149.694C138.871 149.62 141.195 149.455 142.941 148.18C143.436 147.798 143.843 147.313 144.134 146.76C144.426 146.207 144.594 145.597 144.628 144.973C144.659 144.591 144.601 144.208 144.46 143.852C144.318 143.497 144.096 143.179 143.812 142.923C142.653 141.944 140.787 142.261 139.428 142.884L138.256 143.421L140.504 126.997L141.907 127.189L139.995 141.16C141.842 140.617 143.554 140.851 144.726 141.841C145.176 142.234 145.53 142.725 145.758 143.277C145.987 143.829 146.085 144.426 146.044 145.022C146.003 145.861 145.779 146.681 145.387 147.424C144.995 148.167 144.446 148.815 143.777 149.324C141.533 150.963 138.618 151.044 136.275 151.11Z" fill="#2F2E41"/>
<path d="M156.481 128.394H148.85V129.811H156.481V128.394Z" fill="#2F2E41"/>
<path d="M132.394 128.394H124.763V129.811H132.394V128.394Z" fill="#2F2E41"/>
<path d="M137.811 80.2767C133.607 63.4283 117.309 50.4917 99.8465 50.8136C91.2012 51.0561 82.8643 54.0781 76.0726 59.4315C72.6489 62.0954 69.7011 65.3197 67.3543 68.9676C64.7224 73.0739 63.0698 77.7093 61.7796 82.388C59.1725 91.8413 57.9438 102.539 51.3281 110.259C48.5848 113.384 45.2024 115.884 41.4096 117.59C37.6167 119.295 33.5017 120.167 29.3427 120.147C25.1526 120.081 21.0344 119.047 17.3109 117.125C13.5873 115.203 10.3595 112.445 7.88025 109.067C2.90037 102.43 0.448671 93.2503 3.32566 85.2398C4.73744 81.3089 7.77316 77.5957 12.1149 76.9404C14.0949 76.6724 16.1101 76.9892 17.9124 77.8516C19.7147 78.714 21.2254 80.0845 22.2585 81.7942C24.2111 85.2193 23.5866 89.7895 21.1404 92.8105C18.5639 95.9926 14.2582 96.8736 10.4607 95.5952C8.67571 94.9886 7.10616 93.8754 5.94377 92.3916C5.09456 91.3195 3.5894 92.8226 4.42989 93.8836C5.77685 95.4985 7.51598 96.7407 9.48073 97.4911C11.4455 98.2415 13.5701 98.4751 15.651 98.1695C17.7275 97.8555 19.6779 96.9774 21.2895 95.6312C22.9011 94.2849 24.112 92.5221 24.7901 90.535C25.5336 88.5648 25.7286 86.43 25.3544 84.3578C24.9803 82.2856 24.051 80.3536 22.6655 78.7676C21.2219 77.1982 19.3994 76.0255 17.3727 75.3617C15.3459 74.6979 13.1827 74.5653 11.09 74.9764C6.60689 75.9253 3.35118 79.6114 1.66154 83.696C-0.00335973 87.9394 -0.442607 92.5649 0.393839 97.0457C1.16573 101.37 2.83988 105.482 5.3073 109.117C7.77472 112.751 10.9801 115.824 14.7147 118.138C22.2728 122.777 31.7066 123.416 39.9981 120.435C44.1411 118.97 47.9249 116.641 51.0984 113.602C54.5087 110.143 57.1188 105.979 58.7447 101.403C62.483 91.6174 63.0307 80.6679 68.3201 71.47C72.9338 63.66 80.2113 57.7766 88.8159 54.9002C97.3701 51.9456 106.734 52.395 114.965 56.1551C123.151 59.9449 129.744 66.4892 133.593 74.6448C134.51 76.632 135.235 78.702 135.758 80.8268C136.09 82.156 138.142 81.6045 137.811 80.2767L137.811 80.2767Z" fill="#2F2E41"/>
<path d="M178.79 217.037C178.5 215.918 178.16 214.821 177.77 213.744C175.411 207.162 171.274 201.362 165.818 196.987C165.202 196.484 164.564 196.003 163.906 195.542C160.636 193.237 157.021 191.467 153.194 190.297C153.501 189.204 153.496 188.047 153.18 186.956C152.751 185.582 151.891 184.383 150.726 183.537C149.561 182.691 148.153 182.244 146.714 182.263H137.475C136.032 182.244 134.622 182.691 133.453 183.538C132.285 184.385 131.421 185.586 130.991 186.963C130.676 188.051 130.671 189.204 130.976 190.294C123.221 192.675 116.434 197.479 111.612 204C106.789 210.522 104.186 218.418 104.184 226.528V299.952C104.184 304.964 106.09 309.037 108.435 309.037H175.737C175.765 309.037 194.914 309.037 194.943 309.022C197.252 308.947 199.115 304.904 199.115 299.952C199.115 283.001 195.369 259.177 188.144 243.842L179.987 226.528C179.989 223.327 179.587 220.138 178.79 217.037V217.037Z" fill="#2F2E41"/>
<path d="M103.121 145.789C98.4337 145.789 94.62 140.07 94.62 133.04C94.62 126.011 98.4337 120.292 103.121 120.292C107.809 120.292 111.623 126.011 111.623 133.04C111.623 140.07 107.809 145.789 103.121 145.789Z" fill="#3F3D56"/>
<path d="M178.925 145.789C174.237 145.789 170.423 140.07 170.423 133.04C170.423 126.011 174.237 120.292 178.925 120.292C183.612 120.292 187.426 126.011 187.426 133.04C187.426 140.07 183.612 145.789 178.925 145.789Z" fill="#3F3D56"/>
<path d="M181.31 143.795C181.142 143.795 180.976 143.754 180.826 143.677C180.675 143.6 180.546 143.489 180.448 143.352C180.349 143.215 180.285 143.056 180.26 142.889C180.235 142.723 180.25 142.552 180.303 142.392C182.334 136.355 182.945 129.93 182.089 123.617C181.232 117.305 178.931 111.275 175.365 105.997C171.798 100.718 167.062 96.3325 161.524 93.1811C155.987 90.0297 149.797 88.1973 143.436 87.8262C137.075 87.4552 130.714 88.5556 124.847 91.0418C118.981 93.528 113.766 97.3331 109.61 102.161C105.454 106.99 102.467 112.711 100.882 118.881C99.2967 125.051 99.1561 131.503 100.471 137.736C100.528 138.011 100.474 138.298 100.32 138.534C100.166 138.769 99.9253 138.934 99.6499 138.992C99.3746 139.05 99.0874 138.997 98.8515 138.843C98.6155 138.69 98.45 138.45 98.3913 138.174C97.008 131.621 97.1551 124.837 98.821 118.35C100.487 111.863 103.627 105.847 107.997 100.77C112.367 95.6936 117.849 91.6927 124.017 89.0786C130.185 86.4645 136.873 85.3076 143.561 85.6979C150.249 86.0881 156.757 88.015 162.579 91.3288C168.401 94.6425 173.381 99.2539 177.13 104.804C180.879 110.355 183.298 116.695 184.198 123.332C185.097 129.969 184.454 136.724 182.317 143.072C182.246 143.282 182.111 143.465 181.93 143.595C181.75 143.725 181.533 143.795 181.31 143.795V143.795Z" fill="#3F3D56"/>
<path d="M125.109 107.545C123.608 109.594 124.348 112.355 125.93 114.122C127.988 116.42 131.271 116.565 134.121 116.138C137.319 115.66 140.711 114.162 143.949 115.171C146.709 116.032 148.677 118.534 151.544 119.162C154.087 119.72 157.127 118.982 158.019 116.273C158.447 114.971 156.395 114.413 155.969 115.708C155.393 117.461 152.903 117.426 151.477 116.94C149.191 116.162 147.429 114.27 145.182 113.365C142.533 112.3 139.659 112.781 136.962 113.388C134.42 113.96 131.494 114.809 128.961 113.74C127.087 112.949 125.596 110.457 126.944 108.618C127.754 107.513 125.91 106.452 125.109 107.545H125.109Z" fill="#2F2E41"/>
<path d="M227.085 381.986H74.0612C73.8733 381.986 73.6931 381.911 73.5603 381.778C73.4274 381.646 73.3528 381.465 73.3528 381.278C73.3528 381.09 73.4274 380.91 73.5603 380.777C73.6931 380.644 73.8733 380.569 74.0612 380.569H227.085C227.273 380.569 227.453 380.644 227.586 380.777C227.719 380.91 227.793 381.09 227.793 381.278C227.793 381.465 227.719 381.646 227.586 381.778C227.453 381.911 227.273 381.986 227.085 381.986Z" fill="#3F3D56"/>
<path d="M499.7 164.624H331.565C331.394 164.626 331.224 164.593 331.065 164.528C330.906 164.463 330.762 164.368 330.64 164.247C330.519 164.126 330.422 163.982 330.356 163.824C330.291 163.666 330.257 163.496 330.257 163.325C330.257 163.153 330.291 162.984 330.356 162.826C330.422 162.667 330.519 162.524 330.64 162.403C330.762 162.282 330.906 162.187 331.065 162.122C331.224 162.057 331.394 162.024 331.565 162.025H499.7C499.871 162.024 500.041 162.057 500.2 162.122C500.359 162.187 500.503 162.282 500.625 162.403C500.746 162.524 500.843 162.667 500.909 162.826C500.975 162.984 501.009 163.153 501.009 163.325C501.009 163.496 500.975 163.666 500.909 163.824C500.843 163.982 500.746 164.126 500.625 164.247C500.503 164.368 500.359 164.463 500.2 164.528C500.041 164.593 499.871 164.626 499.7 164.624V164.624Z" fill="#E6E6E6"/>
<path d="M428.225 92.9136H362.843C359.19 92.9095 355.687 91.4569 353.104 88.8744C350.521 86.2919 349.068 82.7905 349.064 79.1383V13.775C349.068 10.1229 350.521 6.62155 353.104 4.03913C355.687 1.45671 359.19 0.00411878 362.843 3.05176e-05H428.225C431.878 0.00411878 435.381 1.45671 437.964 4.03913C440.547 6.62155 442 10.1229 442.004 13.775V79.1383C442 82.7905 440.547 86.2919 437.964 88.8744C435.381 91.4569 431.878 92.9095 428.225 92.9136V92.9136Z" fill="#C594FE"/>
<path opacity="0.1" d="M468.422 123.226H403.04C399.387 123.222 395.885 121.769 393.301 119.187C390.718 116.605 389.265 113.103 389.261 109.451V44.0878C389.265 40.4356 390.718 36.9342 393.301 34.3517C395.884 31.7692 399.387 30.3166 403.04 30.3125H468.422C472.075 30.3166 475.578 31.7692 478.161 34.3517C480.744 36.9342 482.197 40.4356 482.202 44.0878V109.451C482.197 113.103 480.744 116.605 478.161 119.187C475.578 121.769 472.075 123.222 468.422 123.226V123.226Z" fill="black"/>
<path d="M355.681 202.094C355.493 202.094 355.313 202.019 355.18 201.886C355.047 201.753 354.973 201.573 354.973 201.385V188.637C354.973 188.449 355.047 188.269 355.18 188.136C355.313 188.003 355.493 187.929 355.681 187.929C355.869 187.929 356.049 188.003 356.182 188.136C356.315 188.269 356.39 188.449 356.39 188.637V201.385C356.39 201.573 356.315 201.753 356.182 201.886C356.049 202.019 355.869 202.094 355.681 202.094V202.094Z" fill="#CCCCCC"/>
<path d="M413.419 202.094C413.231 202.094 413.051 202.019 412.918 201.886C412.785 201.753 412.711 201.573 412.711 201.385V188.637C412.711 188.449 412.785 188.269 412.918 188.136C413.051 188.003 413.231 187.929 413.419 187.929C413.607 187.929 413.787 188.003 413.92 188.136C414.053 188.269 414.128 188.449 414.128 188.637V201.385C414.128 201.573 414.053 201.753 413.92 201.886C413.787 202.019 413.607 202.094 413.419 202.094Z" fill="#3F3D56"/>
<path d="M418.378 202.094C418.19 202.094 418.01 202.019 417.877 201.886C417.745 201.753 417.67 201.573 417.67 201.385V188.637C417.67 188.449 417.745 188.269 417.877 188.136C418.01 188.003 418.19 187.929 418.378 187.929C418.566 187.929 418.746 188.003 418.879 188.136C419.012 188.269 419.087 188.449 419.087 188.637V201.385C419.087 201.573 419.012 201.753 418.879 201.886C418.746 202.019 418.566 202.094 418.378 202.094Z" fill="#3F3D56"/>
<path d="M366.081 202.324C365.792 202.324 365.509 202.247 365.259 202.101L356.833 196.42C356.817 196.41 356.801 196.401 356.786 196.391C356.553 196.244 356.362 196.04 356.23 195.799C356.099 195.557 356.032 195.286 356.035 195.011C356.034 194.722 356.109 194.438 356.253 194.188C356.398 193.938 356.606 193.731 356.857 193.588L365.217 187.947C365.466 187.793 365.752 187.708 366.044 187.702C366.337 187.695 366.626 187.767 366.882 187.909C367.137 188.051 367.35 188.259 367.498 188.512C367.647 188.764 367.725 189.051 367.725 189.344V200.678C367.724 201.114 367.55 201.532 367.242 201.84C366.934 202.148 366.517 202.322 366.081 202.324V202.324ZM366.01 200.901C366.041 200.91 366.073 200.913 366.105 200.909C366.137 200.904 366.167 200.893 366.194 200.875C366.229 200.856 366.258 200.827 366.278 200.792C366.298 200.758 366.309 200.718 366.308 200.678V189.344C366.308 189.304 366.297 189.265 366.277 189.231C366.258 189.196 366.229 189.168 366.195 189.148C366.16 189.128 366.121 189.117 366.081 189.117C366.041 189.117 366.002 189.128 365.968 189.147L357.608 194.789C357.467 194.872 357.452 194.962 357.452 195.011C357.452 195.051 357.462 195.09 357.482 195.125C357.501 195.16 357.53 195.188 357.565 195.207L357.608 195.234L366.01 200.901Z" fill="#CCCCCC"/>
<path d="M474.7 202.094C474.512 202.094 474.332 202.019 474.199 201.886C474.066 201.753 473.991 201.573 473.991 201.385V188.637C473.991 188.449 474.066 188.269 474.199 188.136C474.332 188.003 474.512 187.929 474.7 187.929C474.887 187.929 475.068 188.003 475.201 188.136C475.333 188.269 475.408 188.449 475.408 188.637V201.385C475.408 201.573 475.333 201.753 475.201 201.886C475.068 202.019 474.887 202.094 474.7 202.094Z" fill="#CCCCCC"/>
<path d="M464.287 202.321C464.003 202.321 463.724 202.245 463.478 202.102C463.227 201.959 463.019 201.752 462.874 201.501C462.73 201.251 462.654 200.967 462.656 200.679V189.344C462.656 189.055 462.732 188.772 462.876 188.522C463.021 188.273 463.228 188.065 463.478 187.921C463.728 187.777 464.011 187.701 464.3 187.701C464.588 187.701 464.872 187.777 465.122 187.921L473.566 193.614C473.807 193.759 474.005 193.963 474.142 194.209C474.279 194.454 474.349 194.73 474.345 195.011C474.347 195.295 474.274 195.575 474.134 195.822C473.994 196.069 473.792 196.275 473.548 196.42L465.163 202.075C464.898 202.233 464.596 202.318 464.287 202.321V202.321ZM464.073 200.678C464.073 200.718 464.083 200.757 464.103 200.792C464.123 200.826 464.152 200.855 464.186 200.875C464.221 200.895 464.26 200.905 464.299 200.905C464.339 200.905 464.378 200.895 464.413 200.875L472.805 195.213C472.841 195.193 472.872 195.164 472.893 195.129C472.915 195.094 472.927 195.053 472.928 195.012V195.011C472.929 194.971 472.919 194.932 472.899 194.897C472.879 194.863 472.85 194.834 472.815 194.815L464.371 189.122C464.34 189.111 464.308 189.109 464.276 189.113C464.244 189.117 464.213 189.129 464.186 189.147C464.151 189.167 464.122 189.195 464.102 189.23C464.082 189.265 464.072 189.304 464.073 189.344L464.073 200.678Z" fill="#CCCCCC"/>
<path d="M378.351 171.824C383.046 171.824 386.853 168.019 386.853 163.325C386.853 158.631 383.046 154.826 378.351 154.826C373.656 154.826 369.85 158.631 369.85 163.325C369.85 168.019 373.656 171.824 378.351 171.824Z" fill="#3F3D56"/>
</g>
<defs>
<clipPath id="clip0">
<rect width="501" height="382" fill="white"/>
</clipPath>
</defs>
</svg>
