<svg id="Layer_1" data-name="Layer 1" xmlns="http://www.w3.org/2000/svg" viewBox="0 0 53.43 48"><defs><style>.cls-1,.cls-2{fill:none;}.cls-1{stroke:#000;stroke-width:4px;}.cls-2{stroke:#c594fe;stroke-linecap:round;stroke-width:5px;}</style></defs><ellipse cx="13.86" cy="45.09" rx="6.24" ry="8.85" transform="translate(-32.72 52.85) rotate(-86.95)"/><path class="cls-1" d="M20.71,45.68c.19-1,7.1-40.22-7.13-37.95-4.47.71-9.74,7.46-10.8,12.93" transform="translate(-0.82 -3.68)"/><path class="cls-2" d="M24.75,7.27c3.69-.8,6.83-1.87,10.52-.25a7.59,7.59,0,0,1,4.86,5.62,10,10,0,0,1-2,8.26A30.3,30.3,0,0,1,32.53,27c-.28.2-2.32,1.12-2.16,1.59.4,1.16.84,1,2,.78,3.34-.61,7.82-1.15,10.7,1,1.74,1.3,1.86,3.31,1.59,5.29C44.25,39,43,42.28,43.22,45.76c.11,1.82.61,2.64,2.43,3a10.4,10.4,0,0,0,4.29.3c1.11-.28,2.32-1.34,1.59-2.4" transform="translate(-0.82 -3.68)"/><ellipse cx="13.86" cy="45.09" rx="6.24" ry="8.85" transform="translate(-32.72 52.85) rotate(-86.95)"/><path class="cls-1" d="M20.71,45.68c.19-1,7.1-40.22-7.13-37.95-4.47.71-9.74,7.46-10.8,12.93" transform="translate(-0.82 -3.68)"/><path class="cls-2" d="M24.75,7.27c3.69-.8,6.83-1.87,10.52-.25a7.59,7.59,0,0,1,4.86,5.62,10,10,0,0,1-2,8.26A30.3,30.3,0,0,1,32.53,27c-.28.2-2.32,1.12-2.16,1.59.4,1.16.84,1,2,.78,3.34-.61,7.82-1.15,10.7,1,1.74,1.3,1.86,3.31,1.59,5.29C44.25,39,43,42.28,43.22,45.76c.11,1.82.61,2.64,2.43,3a10.4,10.4,0,0,0,4.29.3c1.11-.28,2.32-1.34,1.59-2.4" transform="translate(-0.82 -3.68)"/></svg>